<svg width="48" height="48" viewBox="0 0 48 48" fill="none" xmlns="http://www.w3.org/2000/svg">
<g clip-path="url(#clip0_165_6128)">
<path d="M24 47.4558L11.272 34.7278C8.75469 32.2105 7.04037 29.0032 6.34586 25.5115C5.65134 22.0199 6.00781 18.4007 7.3702 15.1116C8.73258 11.8226 11.0397 9.01139 13.9998 7.03353C16.9598 5.05568 20.44 4 24 4C27.5601 4 31.0402 5.05568 34.0002 7.03353C36.9603 9.01139 39.2674 11.8226 40.6298 15.1116C41.9922 18.4007 42.3487 22.0199 41.6542 25.5115C40.9596 29.0032 39.2453 32.2105 36.728 34.7278L24 47.4558ZM33.9 31.8998C35.8578 29.9419 37.191 27.4473 37.7311 24.7316C38.2712 22.0159 37.9939 19.201 36.9342 16.643C35.8745 14.0849 34.0801 11.8985 31.7778 10.3602C29.4756 8.8219 26.7689 8.00085 24 8.00085C21.2311 8.00085 18.5244 8.8219 16.2222 10.3602C13.9199 11.8985 12.1255 14.0849 11.0658 16.643C10.0062 19.201 9.72883 22.0159 10.2689 24.7316C10.809 27.4473 12.1422 29.9419 14.1 31.8998L24 41.7998L33.9 31.8998ZM24 25.9998C22.9391 25.9998 21.9217 25.5784 21.1716 24.8283C20.4214 24.0781 20 23.0607 20 21.9998C20 20.939 20.4214 19.9216 21.1716 19.1714C21.9217 18.4213 22.9391 17.9998 24 17.9998C25.0609 17.9998 26.0783 18.4213 26.8284 19.1714C27.5786 19.9216 28 20.939 28 21.9998C28 23.0607 27.5786 24.0781 26.8284 24.8283C26.0783 25.5784 25.0609 25.9998 24 25.9998Z" fill="#123055"/>
<path d="M24 47.4558L11.272 34.7278C8.75469 32.2105 7.04037 29.0032 6.34586 25.5115C5.65134 22.0199 6.00781 18.4007 7.3702 15.1116C8.73258 11.8226 11.0397 9.01139 13.9998 7.03353C16.9598 5.05568 20.44 4 24 4C27.5601 4 31.0402 5.05568 34.0002 7.03353C36.9603 9.01139 39.2674 11.8226 40.6298 15.1116C41.9922 18.4007 42.3487 22.0199 41.6542 25.5115C40.9596 29.0032 39.2453 32.2105 36.728 34.7278L24 47.4558ZM33.9 31.8998C35.8578 29.9419 37.191 27.4473 37.7311 24.7316C38.2712 22.0159 37.9939 19.201 36.9342 16.643C35.8745 14.0849 34.0801 11.8985 31.7778 10.3602C29.4756 8.8219 26.7689 8.00085 24 8.00085C21.2311 8.00085 18.5244 8.8219 16.2222 10.3602C13.9199 11.8985 12.1255 14.0849 11.0658 16.643C10.0062 19.201 9.72883 22.0159 10.2689 24.7316C10.809 27.4473 12.1422 29.9419 14.1 31.8998L24 41.7998L33.9 31.8998ZM24 25.9998C22.9391 25.9998 21.9217 25.5784 21.1716 24.8283C20.4214 24.0781 20 23.0607 20 21.9998C20 20.939 20.4214 19.9216 21.1716 19.1714C21.9217 18.4213 22.9391 17.9998 24 17.9998C25.0609 17.9998 26.0783 18.4213 26.8284 19.1714C27.5786 19.9216 28 20.939 28 21.9998C28 23.0607 27.5786 24.0781 26.8284 24.8283C26.0783 25.5784 25.0609 25.9998 24 25.9998Z" fill="black" fill-opacity="0.2"/>
</g>
<defs>
<clipPath id="clip0_165_6128">
<rect width="48" height="48" fill="white"/>
</clipPath>
</defs>
</svg>
