<svg width="48" height="48" viewBox="0 0 48 48" fill="none" xmlns="http://www.w3.org/2000/svg">
<g clip-path="url(#clip0_165_6131)">
<path d="M18.14 14L12 23.212V40H36V14H18.14ZM16 10H38C38.5304 10 39.0391 10.2107 39.4142 10.5858C39.7893 10.9609 40 11.4696 40 12V42C40 42.5304 39.7893 43.0391 39.4142 43.4142C39.0391 43.7893 38.5304 44 38 44H10C9.46957 44 8.96086 43.7893 8.58579 43.4142C8.21071 43.0391 8 42.5304 8 42V22L16 10ZM26 2H36C36.5304 2 37.0391 2.21071 37.4142 2.58579C37.7893 2.96086 38 3.46957 38 4V8H24V4C24 3.46957 24.2107 2.96086 24.5858 2.58579C24.9609 2.21071 25.4696 2 26 2ZM16 24H20V36H16V24Z" fill="#123055"/>
<path d="M18.14 14L12 23.212V40H36V14H18.14ZM16 10H38C38.5304 10 39.0391 10.2107 39.4142 10.5858C39.7893 10.9609 40 11.4696 40 12V42C40 42.5304 39.7893 43.0391 39.4142 43.4142C39.0391 43.7893 38.5304 44 38 44H10C9.46957 44 8.96086 43.7893 8.58579 43.4142C8.21071 43.0391 8 42.5304 8 42V22L16 10ZM26 2H36C36.5304 2 37.0391 2.21071 37.4142 2.58579C37.7893 2.96086 38 3.46957 38 4V8H24V4C24 3.46957 24.2107 2.96086 24.5858 2.58579C24.9609 2.21071 25.4696 2 26 2ZM16 24H20V36H16V24Z" fill="black" fill-opacity="0.2"/>
</g>
<defs>
<clipPath id="clip0_165_6131">
<rect width="48" height="48" fill="white"/>
</clipPath>
</defs>
</svg>
