<svg width="23" height="19" viewBox="0 0 23 19" fill="none" xmlns="http://www.w3.org/2000/svg">
<path d="M12.5 0V1H19.5V3H12.5V17H16.5V19H6.5V17H10.5V3H3.5V1H10.5V0H12.5ZM4.5 4.343L7.328 7.172C8.052 7.895 8.5 8.895 8.5 10C8.5 12.21 6.71 14 4.5 14C2.29 14 0.5 12.21 0.5 10C0.5 8.895 0.948 7.895 1.672 7.172L4.5 4.343ZM18.5 4.343L21.328 7.172C22.052 7.895 22.5 8.895 22.5 10C22.5 12.21 20.71 14 18.5 14C16.29 14 14.5 12.21 14.5 10C14.5 8.895 14.948 7.895 15.672 7.172L18.5 4.343ZM4.5 7.172L3.086 8.586C2.712 8.96 2.5 9.46 2.5 10C2.5 11.105 3.395 12 4.5 12C5.605 12 6.5 11.105 6.5 10C6.5 9.46 6.288 8.96 5.914 8.586L4.5 7.172ZM18.5 7.172L17.086 8.586C16.712 8.96 16.5 9.46 16.5 10C16.5 11.105 17.395 12 18.5 12C19.605 12 20.5 11.105 20.5 10C20.5 9.46 20.288 8.96 19.914 8.586L18.5 7.172Z" fill="#F9F3EE"/>
</svg>
