<svg width="40" height="40" viewBox="0 0 40 40" fill="none" xmlns="http://www.w3.org/2000/svg">
<path d="M20 0C31.046 0 40 8.954 40 20C40 31.046 31.046 40 20 40C8.954 40 0 31.046 0 20C0 8.954 8.954 0 20 0ZM20 4C11.164 4 4 11.164 4 20C4 28.836 11.164 36 20 36C28.836 36 36 28.836 36 20C36 11.164 28.836 4 20 4ZM27.666 10.674C28.14 10.342 28.784 10.398 29.192 10.808C29.6 11.216 29.652 11.86 29.318 12.328C24.958 18.42 22.558 21.684 22.122 22.122C20.95 23.292 19.05 23.292 17.878 22.122C16.708 20.95 16.708 19.05 17.878 17.878C18.626 17.132 21.888 14.73 27.666 10.674ZM31 18C32.104 18 33 18.896 33 20C33 21.104 32.104 22 31 22C29.896 22 29 21.104 29 20C29 18.896 29.896 18 31 18ZM9 18C10.104 18 11 18.896 11 20C11 21.104 10.104 22 9 22C7.896 22 7 21.104 7 20C7 18.896 7.896 18 9 18ZM13.636 10.808C14.416 11.588 14.416 12.854 13.636 13.636C12.856 14.416 11.588 14.416 10.808 13.636C10.028 12.856 10.028 11.588 10.808 10.808C11.588 10.028 12.854 10.028 13.636 10.808ZM20 7C21.104 7 22 7.896 22 9C22 10.104 21.104 11 20 11C18.896 11 18 10.104 18 9C18 7.896 18.896 7 20 7Z" fill="#123055"/>
<path d="M20 0C31.046 0 40 8.954 40 20C40 31.046 31.046 40 20 40C8.954 40 0 31.046 0 20C0 8.954 8.954 0 20 0ZM20 4C11.164 4 4 11.164 4 20C4 28.836 11.164 36 20 36C28.836 36 36 28.836 36 20C36 11.164 28.836 4 20 4ZM27.666 10.674C28.14 10.342 28.784 10.398 29.192 10.808C29.6 11.216 29.652 11.86 29.318 12.328C24.958 18.42 22.558 21.684 22.122 22.122C20.95 23.292 19.05 23.292 17.878 22.122C16.708 20.95 16.708 19.05 17.878 17.878C18.626 17.132 21.888 14.73 27.666 10.674ZM31 18C32.104 18 33 18.896 33 20C33 21.104 32.104 22 31 22C29.896 22 29 21.104 29 20C29 18.896 29.896 18 31 18ZM9 18C10.104 18 11 18.896 11 20C11 21.104 10.104 22 9 22C7.896 22 7 21.104 7 20C7 18.896 7.896 18 9 18ZM13.636 10.808C14.416 11.588 14.416 12.854 13.636 13.636C12.856 14.416 11.588 14.416 10.808 13.636C10.028 12.856 10.028 11.588 10.808 10.808C11.588 10.028 12.854 10.028 13.636 10.808ZM20 7C21.104 7 22 7.896 22 9C22 10.104 21.104 11 20 11C18.896 11 18 10.104 18 9C18 7.896 18.896 7 20 7Z" fill="black" fill-opacity="0.2"/>
</svg>
