<svg width="49" height="48" viewBox="0 0 49 48" fill="none" xmlns="http://www.w3.org/2000/svg">
<g clip-path="url(#clip0_165_6134)">
<path d="M44.1001 28.002C43.2718 32.0473 41.2127 35.7375 38.2051 38.5668C35.1975 41.3961 31.3885 43.2261 27.3001 43.806V39.756C30.3197 39.2175 33.1212 37.8234 35.3718 35.7395C37.6224 33.6555 39.2274 30.9693 39.9961 28L44.1001 28.002ZM9.00414 28.002C9.76457 30.937 11.3423 33.596 13.5539 35.6699C15.7656 37.7438 18.5204 39.1476 21.4981 39.718V43.778C17.45 43.1612 13.6883 41.3179 10.7204 38.4966C7.75248 35.6753 5.72108 32.0118 4.90014 28H9.00414V28.002ZM36.5001 22V26H34.5001C32.4477 26 30.4737 26.7889 28.9865 28.2034C27.4994 29.618 26.6128 31.5501 26.5101 33.6L26.5001 34V36H22.5001V34C22.5001 31.9475 21.7113 29.9735 20.2967 28.4864C18.8821 26.9992 16.9501 26.1126 14.9001 26.01L14.5001 26H12.5001V22H36.5001ZM24.5001 4C34.8701 4 43.3981 11.894 44.4001 22H40.3761C39.8881 18.1338 38.006 14.5785 35.083 12.0014C32.16 9.42416 28.397 8.00215 24.5001 8.00215C20.6033 8.00215 16.8403 9.42416 13.9173 12.0014C10.9943 14.5785 9.11221 18.1338 8.62414 22H4.59814C5.60214 11.894 14.1301 4 24.5001 4Z" fill="#123055"/>
<path d="M44.1001 28.002C43.2718 32.0473 41.2127 35.7375 38.2051 38.5668C35.1975 41.3961 31.3885 43.2261 27.3001 43.806V39.756C30.3197 39.2175 33.1212 37.8234 35.3718 35.7395C37.6224 33.6555 39.2274 30.9693 39.9961 28L44.1001 28.002ZM9.00414 28.002C9.76457 30.937 11.3423 33.596 13.5539 35.6699C15.7656 37.7438 18.5204 39.1476 21.4981 39.718V43.778C17.45 43.1612 13.6883 41.3179 10.7204 38.4966C7.75248 35.6753 5.72108 32.0118 4.90014 28H9.00414V28.002ZM36.5001 22V26H34.5001C32.4477 26 30.4737 26.7889 28.9865 28.2034C27.4994 29.618 26.6128 31.5501 26.5101 33.6L26.5001 34V36H22.5001V34C22.5001 31.9475 21.7113 29.9735 20.2967 28.4864C18.8821 26.9992 16.9501 26.1126 14.9001 26.01L14.5001 26H12.5001V22H36.5001ZM24.5001 4C34.8701 4 43.3981 11.894 44.4001 22H40.3761C39.8881 18.1338 38.006 14.5785 35.083 12.0014C32.16 9.42416 28.397 8.00215 24.5001 8.00215C20.6033 8.00215 16.8403 9.42416 13.9173 12.0014C10.9943 14.5785 9.11221 18.1338 8.62414 22H4.59814C5.60214 11.894 14.1301 4 24.5001 4Z" fill="black" fill-opacity="0.2"/>
</g>
<defs>
<clipPath id="clip0_165_6134">
<rect width="48" height="48" fill="white" transform="translate(0.5)"/>
</clipPath>
</defs>
</svg>
