<svg width="117" height="45" viewBox="0 0 117 45" fill="none" xmlns="http://www.w3.org/2000/svg">
<path fill-rule="evenodd" clip-rule="evenodd" d="M114.08 9.05189L80.8643 9.05606C80.016 9.05606 79.4601 8.78689 79.4601 7.54787V2.31015C79.4601 0.799187 78.6954 0 77.3069 0L39.2831 0.00138671C37.8619 0.00138671 37.1311 0.851914 37.1311 2.29628L37.1285 7.53399C37.1285 8.63981 36.6379 9.04218 35.7244 9.04218L13.957 9.04912C12.2918 9.04912 11.317 9.89409 10.8145 11.0041L0.216629 33.0303C0.0760067 33.3189 0.00176749 33.6389 0 33.964C0 34.8367 0.537661 35.962 2.02145 35.962L35.7217 35.9578C36.7618 35.9578 37.1259 36.4601 37.1259 37.466L37.1233 42.7037C37.1233 44.2813 37.9859 45 39.2805 45L58.2943 44.9986L77.3029 44.9972C78.5975 44.9972 79.4588 44.3312 79.4588 42.7176L79.4562 37.4799C79.4562 36.4088 79.8842 35.9717 80.8604 35.9717L101.992 35.9661C103.45 35.9661 104.498 35.5582 105.229 34.1153L115.706 12.3485C115.936 11.8782 116.097 11.6104 116.097 11.0512C116.101 9.5722 114.901 9.05189 114.08 9.05189ZM105.71 17.8263L100.659 28.3309C100.343 28.94 99.7789 28.9663 99.3835 28.9663H74.308C73.2679 28.9663 72.8881 29.4686 72.8881 30.4731L72.8829 36.5156C72.8829 37.5201 72.4705 38.0002 71.4605 38.0002H58.2969L45.1243 38.003C44.2434 38.003 43.7044 37.6741 43.7044 36.5003L43.7018 30.4579C43.7018 29.3534 43.2255 28.9594 42.282 28.9594H11.5401C10.7845 28.9594 10.2625 28.453 10.2625 27.7509C10.2625 27.5483 10.3108 27.3555 10.3943 27.1876L15.446 16.683C15.6391 16.3098 15.9562 16.0545 16.7197 16.0545L42.282 16.0559C43.1642 16.0559 43.7123 15.6785 43.7123 14.5394L43.711 8.49829C43.711 7.42578 44.1507 6.99565 45.1269 6.99565L71.4657 6.99427C72.4118 6.99427 72.8829 7.44103 72.8829 8.51216L72.8803 14.5532C72.8803 15.5911 73.3344 16.0517 74.3106 16.0517H104.566C105.529 16.0517 105.843 16.726 105.843 17.2602C105.841 17.4573 105.795 17.6512 105.71 17.8263Z" fill="#395F8D"/>
</svg>
