<svg width="55" height="49" viewBox="0 0 55 49" fill="none" xmlns="http://www.w3.org/2000/svg">
<path d="M27.4978 32.2366C26.9061 32.2366 26.3104 32.2705 25.8409 32.3384C23.612 32.661 22.7757 33.2848 21.9906 34.8763C21.4817 35.9033 20.4599 39.0141 19.6433 42.9779C18.0445 42.9177 16.4466 42.8328 14.8501 42.7232C14.2938 37.1552 13.0117 13.9793 12.9762 6.02627C13.8796 5.96262 14.8383 5.87774 15.8955 5.83105C16.5346 9.50627 18.6649 22.3143 20.4086 26.3418C21.1819 28.137 22.5311 28.7481 24.184 28.8839C26.3931 29.007 28.6066 29.007 30.8156 28.8839C32.4646 28.7481 33.8138 28.137 34.5871 26.3418C36.3268 22.3143 38.4571 9.51051 39.1002 5.83105C40.1574 5.88198 41.12 5.96262 42.0195 6.02627C41.984 13.9836 40.7058 37.1552 40.1417 42.7232C38.7136 42.8251 37.0645 42.91 35.3485 42.9779C34.5318 39.0098 33.5101 35.9033 33.0012 34.8763C32.2201 33.2848 31.3837 32.661 29.1508 32.3384C28.6024 32.2667 28.0503 32.2326 27.4978 32.2366Z" fill="#395F8D"/>
<path d="M27.4979 49C23.0518 49 12.8894 48.7072 9.54405 48.0324C5.98958 47.3152 3.591 45.1211 2.41538 41.5138C1.4094 38.4369 0.667736 32.7247 0.210113 24.534C-0.0739292 19.4031 -0.0699832 14.7942 0.221949 10.8474C0.726913 4.12931 3.61073 1.45141 9.64268 0.717218C13.6745 0.233414 22.6849 0 27.4979 0C32.3108 0 41.3213 0.233414 45.3452 0.721462C51.3771 1.45566 54.2649 4.13355 54.7659 10.8516C55.0618 14.7985 55.0657 19.4073 54.7817 24.5382C54.328 32.7289 53.5863 38.4412 52.5804 41.518C51.4008 45.1253 49.0062 47.3152 45.4438 48.0366C42.1103 48.7072 31.9439 49 27.4979 49ZM44.9388 45.1126C46.0753 44.8825 47.1368 44.3392 48.0198 43.5358C48.9028 42.7325 49.577 41.6966 49.9766 40.5292C50.6078 38.5897 51.4797 34.2143 52.0281 24.3515C52.3082 19.3564 52.3042 14.8918 52.0162 11.0808C51.677 6.52287 49.5387 4.21419 45.0375 3.66672C41.1161 3.19141 32.2516 2.97073 27.4979 2.97073C22.7441 2.97073 13.8796 3.19141 9.95433 3.67097C5.457 4.21843 3.3188 6.52711 2.97558 11.0851C2.69154 14.8961 2.69153 19.3606 2.96769 24.3557C3.51604 34.2185 4.3879 38.5897 5.0191 40.5334C5.62664 42.3923 7.323 44.5609 10.053 45.1168C12.8658 45.6813 22.109 46.0335 27.4979 46.0335C32.8868 46.0335 42.126 45.6813 44.9388 45.1126Z" fill="#395F8D"/>
</svg>
