<svg width="150" height="56" viewBox="0 0 150 56" fill="none" xmlns="http://www.w3.org/2000/svg">
<path fill-rule="evenodd" clip-rule="evenodd" d="M75.1517 6C50.2157 6 30 16.0749 30 28.4991C30 40.9242 50.2157 51 75.1517 51C100.086 51 120.302 40.9251 120.302 28.4991C120.302 16.0758 100.085 6 75.1517 6ZM70.868 11.0076C76.0214 9.16861 91.3324 11.0076 97.2796 13.8908C99.183 15.7334 88.7928 21.6534 76.4214 24.2195C58.7338 27.8199 67.14 14.0498 70.868 11.0076ZM40.4922 37.6671C36.604 34.8688 28.9906 26.8606 41.6027 18.5353C48.2649 14.6134 51.9919 13.73 56.5915 12.7708C58.8134 12.2884 60.3991 12.8503 58.4161 14.5321C54.213 18.9355 45.4881 33.5031 44.6962 36.7078C44.0599 38.8711 42.7919 39.4284 40.4922 37.6671ZM76.8152 46.9561C69.3611 47.7546 52.7857 45.2743 52.4671 43.1155C52.7857 37.9083 78.7991 29.2623 83.4774 34.0658C85.4622 37.8279 81.6555 46.715 76.8152 46.9561ZM114.728 31.8213C112.823 36.2255 106.4 41.1916 92.9181 44.5544C90.8537 45.0313 90.1405 43.7523 91.4881 42.551C93.7109 41.1907 104.418 23.0986 105.765 19.4937C106.559 17.651 108.065 18.3745 109.018 19.0935C113.302 21.8945 116.553 26.4587 114.728 31.8213Z" fill="#395F8D"/>
</svg>
