<svg width="68" height="52" viewBox="0 0 68 52" fill="none" xmlns="http://www.w3.org/2000/svg">
<path fill-rule="evenodd" clip-rule="evenodd" d="M34.9318 4.18954C31.4148 8.76674 21.3832 23.5442 20.24 25.4575C18.039 29.1236 17.8445 30.9002 17.7797 32.0839C17.7159 33.2458 17.7159 35.3406 19.5063 37.0488C22.5058 39.8722 26.7123 39.4161 30.4454 39.4161H61.1913C62.5074 39.4161 62.8963 39.0057 63.6084 38.0044C66.0676 34.0419 67.1686 29.7383 67.1686 25.8898C67.1686 17.6465 62.0988 7.26381 49.2603 2.5726L47.8136 4.75858C57.9974 9.85818 62.2059 16.5301 62.2059 25.8659C62.2707 28.3712 61.6441 31.0806 60.0903 33.5858H30.1851C28.3947 33.5858 28.1354 31.4454 28.7826 30.2379C31.3465 25.4225 34.2077 20.7904 37.3479 16.3716C40.369 12.1136 43.3458 8.12825 46.4749 3.96151C47.3166 2.80063 46.7548 1.68432 45.0724 1.3205C41.577 0.546235 37.9313 0 33.5077 0C8.97677 0 0 14.8686 0 25.8898C0 37.8448 9.04061 51.7122 33.5725 51.7122C47.187 51.7122 56.0989 47.0883 61.2552 41.146H56.0547C51.5447 45.5408 43.7986 48.6617 33.5725 48.6617C12.7944 48.6617 5.13562 36.3419 5.13562 25.7301C5.28589 16.2575 13.5064 3.18725 34.0911 2.75503C34.868 2.73222 35.473 3.48369 34.9318 4.18954Z" fill="#395F8D"/>
</svg>
