<svg width="59" height="59" viewBox="0 0 59 59" fill="none" xmlns="http://www.w3.org/2000/svg">
<path d="M54.8004 44.6745C57.5555 40.0929 59.0076 34.8461 59 29.5C59 13.2074 45.7916 0 29.4997 0C13.2073 0 2.94888e-05 13.2079 2.94888e-05 29.5C-0.00754686 34.8463 1.44491 40.0931 4.20069 44.6745L4.09331 44.7605L4.22152 44.7108C9.38487 53.2724 18.7729 59 29.4997 59C40.2271 59 49.6141 53.2724 54.7769 44.7108L54.9051 44.7605L54.8004 44.6745ZM55.3757 29.5C55.3808 34.0177 54.1964 38.4571 51.9417 42.3719L33.6924 27.6734L29.9496 3.63708C44.0313 3.87749 55.3757 15.3604 55.3757 29.5ZM3.62692 29.5C3.62692 15.3609 14.9703 3.87802 29.052 3.63708L25.3092 27.6734L7.05989 42.3719C4.80591 38.4568 3.62193 34.0175 3.62692 29.5ZM29.5008 55.3741C20.3195 55.3741 12.2606 50.5874 7.66838 43.3779L29.5008 34.9316L51.3332 43.3784C46.7404 50.5874 38.6832 55.3741 29.5008 55.3741Z" fill="#395F8D"/>
</svg>
