<svg width="32" height="32" viewBox="0 0 32 32" fill="none" xmlns="http://www.w3.org/2000/svg">
<g clip-path="url(#clip0_729_1001)">
<path d="M17.3333 2.66699V4.00033H26.6666V6.66699H17.3333V25.3337H22.6666V28.0003H9.33325V25.3337H14.6666V6.66699H5.33325V4.00033H14.6666V2.66699H17.3333ZM6.66659 8.45766L10.4373 12.2297C11.4026 13.1937 11.9999 14.527 11.9999 16.0003C11.9999 18.947 9.61325 21.3337 6.66659 21.3337C3.71992 21.3337 1.33325 18.947 1.33325 16.0003C1.33325 14.527 1.93059 13.1937 2.89592 12.2297L6.66659 8.45766ZM25.3333 8.45766L29.1039 12.2297C30.0693 13.1937 30.6666 14.527 30.6666 16.0003C30.6666 18.947 28.2799 21.3337 25.3333 21.3337C22.3866 21.3337 19.9999 18.947 19.9999 16.0003C19.9999 14.527 20.5973 13.1937 21.5626 12.2297L25.3333 8.45766ZM6.66659 12.2297L4.78125 14.115C4.28259 14.6137 3.99992 15.2803 3.99992 16.0003C3.99992 17.4737 5.19325 18.667 6.66659 18.667C8.13992 18.667 9.33325 17.4737 9.33325 16.0003C9.33325 15.2803 9.05059 14.6137 8.55192 14.115L6.66659 12.2297ZM25.3333 12.2297L23.4479 14.115C22.9493 14.6137 22.6666 15.2803 22.6666 16.0003C22.6666 17.4737 23.8599 18.667 25.3333 18.667C26.8066 18.667 27.9999 17.4737 27.9999 16.0003C27.9999 15.2803 27.7173 14.6137 27.2186 14.115L25.3333 12.2297Z" fill="#395F8D"/>
</g>
<defs>
<clipPath id="clip0_729_1001">
<rect width="32" height="32" fill="white"/>
</clipPath>
</defs>
</svg>
