
<svg width="21" height="21" viewBox="0 0 21 21" fill="none" xmlns="http://www.w3.org/2000/svg">
<path d="M4.45488 13L-0.00012207 16.5V1C-0.00012207 0.734784 0.105235 0.48043 0.292771 0.292893C0.480307 0.105357 0.734661 0 0.999878 0H15.9999C16.2651 0 16.5194 0.105357 16.707 0.292893C16.8945 0.48043 16.9999 0.734784 16.9999 1V13H4.45488ZM3.76288 11H14.9999V2H1.99988V12.385L3.76288 11ZM6.99988 15H17.2369L18.9999 16.385V6H19.9999C20.2651 6 20.5194 6.10536 20.707 6.29289C20.8945 6.48043 20.9999 6.73478 20.9999 7V20.5L16.5449 17H7.99988C7.73466 17 7.48031 16.8946 7.29277 16.7071C7.10524 16.5196 6.99988 16.2652 6.99988 16V15Z" fill="#123055"/>
<path d="M4.45488 13L-0.00012207 16.5V1C-0.00012207 0.734784 0.105235 0.48043 0.292771 0.292893C0.480307 0.105357 0.734661 0 0.999878 0H15.9999C16.2651 0 16.5194 0.105357 16.707 0.292893C16.8945 0.48043 16.9999 0.734784 16.9999 1V13H4.45488ZM3.76288 11H14.9999V2H1.99988V12.385L3.76288 11ZM6.99988 15H17.2369L18.9999 16.385V6H19.9999C20.2651 6 20.5194 6.10536 20.707 6.29289C20.8945 6.48043 20.9999 6.73478 20.9999 7V20.5L16.5449 17H7.99988C7.73466 17 7.48031 16.8946 7.29277 16.7071C7.10524 16.5196 6.99988 16.2652 6.99988 16V15Z" fill="black" fill-opacity="0.2"/>
</svg>
