
<svg width="168" height="34" viewBox="0 0 168 34" fill="none" xmlns="http://www.w3.org/2000/svg">
<path d="M36.3241 29.8323H33.9841L40.7161 6.00027H48.6001L40.3921 33.0003H30.7801L22.9681 9.96027H26.0281L18.1801 33.0003H8.60411L0.360107 6.00027H8.28011L15.0121 29.8323L12.7081 29.7963L20.5561 6.00027H28.4401L36.3241 29.8323Z" fill="#395F8D"/>
<path d="M50.9888 5.28027H58.3688V33.0003H50.9888V5.28027ZM65.8928 11.8323C67.8848 11.8323 69.5648 12.2283 70.9328 13.0203C72.3248 13.8123 73.3928 14.9283 74.1368 16.3683C74.8808 17.8083 75.2528 19.5123 75.2528 21.4803V33.0003H67.8728V22.5603C67.8728 21.0243 67.4768 19.8483 66.6848 19.0323C65.9168 18.2163 64.8008 17.8083 63.3368 17.8083C62.3288 17.8083 61.4408 18.0243 60.6728 18.4563C59.9288 18.8883 59.3528 19.5003 58.9448 20.2923C58.5608 21.0843 58.3688 22.0203 58.3688 23.1003L56.0648 21.9123C56.3528 19.7283 56.9648 17.8923 57.9008 16.4043C58.8368 14.8923 59.9888 13.7523 61.3568 12.9843C62.7488 12.2163 64.2608 11.8323 65.8928 11.8323Z" fill="#395F8D"/>
<path d="M91.1035 33.5763C88.6075 33.5763 86.3755 33.1203 84.4074 32.2083C82.4634 31.2963 80.9275 30.0243 79.7995 28.3923C78.6715 26.7363 78.1075 24.8163 78.1075 22.6323C78.1075 20.4963 78.6474 18.6243 79.7274 17.0163C80.8074 15.3843 82.2834 14.1123 84.1554 13.2003C86.0515 12.2883 88.1875 11.8323 90.5635 11.8323C93.0355 11.8323 95.1355 12.3723 96.8634 13.4523C98.6154 14.5083 99.9595 16.0083 100.895 17.9523C101.855 19.8963 102.335 22.1883 102.335 24.8283H84.0475V20.4003H98.1954L95.7835 21.9483C95.6875 20.8923 95.4235 20.0043 94.9915 19.2843C94.5595 18.5403 93.9835 17.9763 93.2635 17.5923C92.5675 17.2083 91.7275 17.0163 90.7435 17.0163C89.6635 17.0163 88.7394 17.2323 87.9715 17.6643C87.2035 18.0963 86.6034 18.6963 86.1714 19.4643C85.7394 20.2083 85.5235 21.0843 85.5235 22.0923C85.5235 23.3883 85.8115 24.4923 86.3875 25.4043C86.9874 26.2923 87.8515 26.9763 88.9795 27.4563C90.1315 27.9363 91.5355 28.1763 93.1915 28.1763C94.7035 28.1763 96.2035 27.9843 97.6915 27.6003C99.2035 27.1923 100.571 26.6283 101.795 25.9083V30.5883C100.379 31.5483 98.7595 32.2923 96.9355 32.8203C95.1355 33.3243 93.1915 33.5763 91.1035 33.5763Z" fill="#395F8D"/>
<path d="M117.541 33.5763C115.045 33.5763 112.813 33.1203 110.845 32.2083C108.901 31.2963 107.365 30.0243 106.237 28.3923C105.109 26.7363 104.545 24.8163 104.545 22.6323C104.545 20.4963 105.085 18.6243 106.165 17.0163C107.245 15.3843 108.721 14.1123 110.593 13.2003C112.489 12.2883 114.625 11.8323 117.001 11.8323C119.473 11.8323 121.573 12.3723 123.301 13.4523C125.053 14.5083 126.397 16.0083 127.333 17.9523C128.293 19.8963 128.773 22.1883 128.773 24.8283H110.485V20.4003H124.633L122.221 21.9483C122.125 20.8923 121.861 20.0043 121.429 19.2843C120.997 18.5403 120.421 17.9763 119.701 17.5923C119.005 17.2083 118.165 17.0163 117.181 17.0163C116.101 17.0163 115.177 17.2323 114.409 17.6643C113.641 18.0963 113.041 18.6963 112.609 19.4643C112.177 20.2083 111.961 21.0843 111.961 22.0923C111.961 23.3883 112.249 24.4923 112.825 25.4043C113.425 26.2923 114.289 26.9763 115.417 27.4563C116.569 27.9363 117.973 28.1763 119.629 28.1763C121.141 28.1763 122.641 27.9843 124.129 27.6003C125.641 27.1923 127.009 26.6283 128.233 25.9083V30.5883C126.817 31.5483 125.197 32.2923 123.373 32.8203C121.573 33.3243 119.629 33.5763 117.541 33.5763Z" fill="#395F8D"/>
<path d="M131.918 5.28027H139.298V33.0003H131.918V5.28027Z" fill="#395F8D"/>
<path d="M167.176 26.3043C167.176 27.8883 166.696 29.2203 165.736 30.3003C164.776 31.3803 163.408 32.1963 161.632 32.7483C159.856 33.3003 157.72 33.5763 155.224 33.5763C152.656 33.5763 150.4 33.2643 148.456 32.6403C146.536 32.0163 145.036 31.1403 143.956 30.0123C142.876 28.8843 142.3 27.5763 142.228 26.0883H149.68C149.848 26.6403 150.172 27.1203 150.652 27.5283C151.156 27.9123 151.816 28.2123 152.632 28.4283C153.448 28.6203 154.42 28.7163 155.548 28.7163C157.012 28.7163 158.116 28.5723 158.86 28.2843C159.628 27.9963 160.012 27.5643 160.012 26.9883C160.012 26.5323 159.724 26.1963 159.148 25.9803C158.572 25.7403 157.588 25.5603 156.196 25.4403L152.56 25.1523C150.136 24.9843 148.204 24.6243 146.764 24.0723C145.348 23.4963 144.328 22.7643 143.704 21.8763C143.08 20.9643 142.768 19.9323 142.768 18.7803C142.768 17.2203 143.248 15.9363 144.208 14.9283C145.192 13.8963 146.548 13.1283 148.276 12.6243C150.028 12.0963 152.068 11.8323 154.396 11.8323C156.7 11.8323 158.752 12.1323 160.552 12.7323C162.352 13.3323 163.792 14.1723 164.872 15.2523C165.952 16.3083 166.576 17.5563 166.744 18.9963H159.292C159.172 18.5403 158.908 18.1323 158.5 17.7723C158.092 17.3883 157.528 17.0763 156.808 16.8363C156.088 16.5963 155.164 16.4763 154.036 16.4763C152.716 16.4763 151.708 16.6203 151.012 16.9083C150.34 17.1963 150.004 17.6043 150.004 18.1323C150.004 18.5403 150.208 18.8643 150.616 19.1043C151.048 19.3443 151.84 19.5123 152.992 19.6083L157.78 19.9683C160.156 20.1123 162.028 20.4603 163.396 21.0123C164.764 21.5403 165.736 22.2483 166.312 23.1363C166.888 24.0243 167.176 25.0803 167.176 26.3043Z" fill="#395F8D"/>
<path d="M113.869 5.83573C125.463 6.30428 128.466 7.81028 130.26 9.91008C126.105 6.87051 119.437 7.37223 114.099 8.89122C114.099 8.89122 109.909 9.76557 106.114 10.0511C102.319 10.3366 98.1053 10.0945 98.1053 10.0945C96.0408 9.2256 90.452 7.65343 84.6135 8.31618C78.7749 8.97893 75.3902 11.338 74.2922 12.4449C76.3145 10.3373 83.4193 5.35068 88.408 4.39922C93.2456 3.47656 101.212 2.87758 104.422 3.47368L113.869 5.83573Z" stroke="#D38455" stroke-width="0.691358"/>
<path d="M96.6874 4.33508C96.6874 4.33508 97.4799 5.55525 100.275 8.53468C100.275 8.53468 100.295 8.81257 98.6273 8.37936C96.9595 7.94616 95.1445 5.56845 95.1027 5.01299C95.0609 4.45753 96.6874 4.33508 96.6874 4.33508Z" stroke="#D38455" stroke-width="0.691358"/>
<path d="M106.301 8.91931C103.861 9.10286 101.672 8.98825 101.109 8.75127C100.546 8.51429 100.415 8.24485 99.0441 6.67186C97.3776 4.75999 97.2297 4.29427 97.2297 4.29427L100.211 4.06994C102.651 3.88638 103.492 4.19951 104.048 4.33994L104.062 4.34332C104.894 4.55345 106.002 4.83334 107.628 5.70438C109.341 6.62176 111.41 7.97625 111.41 7.97625C111.41 7.97625 108.199 8.77654 106.301 8.91931Z" stroke="#D38455" stroke-width="0.691358"/>
<path d="M114.308 6.64082C114.308 6.64082 112.317 7.95462 111.66 7.67809C111.003 7.40155 110.221 6.66897 107.948 5.44328C107.111 4.99205 105.967 4.47497 103.735 3.8048L114.308 6.64082Z" stroke="#D38455" stroke-width="0.691358"/>
<path d="M124.662 7.35808C124.914 7.33912 125.165 7.36981 125.408 7.44024C125.552 7.48208 125.663 7.55539 125.798 7.6209C125.94 7.69007 126.085 7.80081 126.237 7.84775C126.343 7.88066 126.449 7.92927 126.555 7.96725C126.623 7.99181 126.694 8.01562 126.76 8.04719C126.785 8.05916 126.825 8.07961 126.853 8.08052C126.928 8.08295 127.04 8.13101 127.107 8.16258C127.201 8.20733 127.307 8.20775 127.395 8.25868" stroke="#D38455" stroke-width="0.691358" stroke-linecap="round"/>
<path d="M124.495 7.38239C124.251 7.40077 123.99 7.45186 123.746 7.42211C123.538 7.39671 123.347 7.27829 123.138 7.26559C123.09 7.26267 123.019 7.24732 122.981 7.21398C122.958 7.19367 122.953 7.1852 122.992 7.1869C123.112 7.19201 123.228 7.21571 123.349 7.21255C123.526 7.20794 123.759 7.13955 123.93 7.21173C123.958 7.22354 124.029 7.26906 123.993 7.19869C123.949 7.11228 123.811 7.00895 123.721 6.98232C123.47 6.90809 123.22 6.82956 122.966 6.76639C122.736 6.70921 122.524 6.71256 122.293 6.72997C121.823 6.76534 121.36 6.74345 120.889 6.71522C120.778 6.70858 120.665 6.70744 120.555 6.72245C120.525 6.72653 120.583 6.76372 120.588 6.76668C120.666 6.81318 120.745 6.85531 120.835 6.86781C121.066 6.90005 121.297 6.90206 121.528 6.94308C121.773 6.98656 122.021 7.01649 122.265 7.06623C122.358 7.08519 122.435 7.13942 122.517 7.18486C122.548 7.20201 122.674 7.23108 122.58 7.2243C122.419 7.21253 122.273 7.16459 122.109 7.20088C122.003 7.22443 121.893 7.27859 121.784 7.28681C121.731 7.29078 121.677 7.30634 121.622 7.31047C121.476 7.32151 121.328 7.30956 121.181 7.32064C121.062 7.32957 120.954 7.35062 120.84 7.38082C120.752 7.4044 120.672 7.44892 120.579 7.45811C120.504 7.46546 120.507 7.4613 120.59 7.44513C120.862 7.39202 121.116 7.26849 121.388 7.2129C121.694 7.15028 122.009 7.0685 122.323 7.06184C122.35 7.06126 122.386 7.0954 122.407 7.10864C122.495 7.16302 122.586 7.2127 122.675 7.26522C122.693 7.27591 122.852 7.35682 122.852 7.35626" stroke="#D38455" stroke-width="0.691358" stroke-linecap="round"/>
<path d="M120 6.90815C119.944 6.89004 119.89 6.90244 119.833 6.90307C119.627 6.90536 119.424 6.84791 119.223 6.81223C118.759 6.72978 118.297 6.62815 117.835 6.52798C117.577 6.47177 117.314 6.39195 117.05 6.36392C116.812 6.33858 117.527 6.3258 117.766 6.30631C118.186 6.27204 118.601 6.20665 119.024 6.21167C119.159 6.21328 119.305 6.23671 119.431 6.28985C119.587 6.35547 119.733 6.44448 119.899 6.48059C120.046 6.51245 120.199 6.54599 120.34 6.59436C120.413 6.61965 120.482 6.64002 120.553 6.67405C120.636 6.71393 120.48 6.66725 120.467 6.66194C120.272 6.58366 120.067 6.52802 119.861 6.48714C119.671 6.4493 119.476 6.44798 119.286 6.40957C119.135 6.37924 118.992 6.36472 118.84 6.37613C118.797 6.37937 118.606 6.35666 118.645 6.44199C118.688 6.53673 118.946 6.58777 119.034 6.60521C119.288 6.65585 119.531 6.69892 119.781 6.77398C119.965 6.82911 120.153 6.87101 120.334 6.93323C120.382 6.94945 120.488 6.97236 120.527 7.00616C120.563 7.03803 120.502 7.05449 120.484 7.05586C120.4 7.06222 120.307 7.05675 120.222 7.05044C120.049 7.03749 119.898 7.11756 119.744 7.1859C119.598 7.25099 119.45 7.31103 119.304 7.37895C119.281 7.38998 119.206 7.40429 119.209 7.44375C119.214 7.50289 119.444 7.48537 119.472 7.48351C119.748 7.46504 120.026 7.42984 120.302 7.45077C120.407 7.45868 120.471 7.44396 120.358 7.36664C120.063 7.16472 119.693 7.10641 119.355 7.03199C118.883 6.92785 118.409 6.80517 117.942 6.67804C117.552 6.5718 117.177 6.40669 116.789 6.29245C116.517 6.21267 116.132 6.05605 115.843 6.15341C115.721 6.19486 115.782 6.26648 115.881 6.28914C116.011 6.31905 116.147 6.32392 116.281 6.31766C116.385 6.31276 116.466 6.36071 116.558 6.40653C116.77 6.51224 117.025 6.56875 117.223 6.69866C117.516 6.89045 117.823 7.03917 118.152 7.14759C118.334 7.20728 118.52 7.24141 118.699 7.30732C118.748 7.32534 118.802 7.35606 118.85 7.37961C118.887 7.39768 118.935 7.5157 118.932 7.4739" stroke="#D38455" stroke-width="0.691358" stroke-linecap="round"/>
<path d="M118.616 7.61475C118.06 7.65654 117.516 7.73195 116.965 7.80966C116.644 7.85482 116.333 7.91395 116.023 8.01067C115.856 8.06294 115.666 8.17143 115.49 8.18468" stroke="#D38455" stroke-width="0.691358" stroke-linecap="round"/>
<path d="M118.304 7.1529C118.027 7.17373 117.748 7.18477 117.472 7.2192C116.856 7.29623 116.28 7.52431 115.695 7.7165C115.466 7.79148 115.246 7.89875 115.017 7.96929C114.92 7.99911 114.844 8.07767 114.75 8.11026C114.655 8.14302 114.563 8.17984 114.467 8.20781C114.46 8.20989 114.363 8.24373 114.379 8.25158C114.457 8.28964 114.565 8.29928 114.65 8.29727C114.851 8.29245 115.035 8.20228 115.236 8.18715C115.33 8.18002 115.375 8.16431 115.367 8.06013" stroke="#D38455" stroke-width="0.691358" stroke-linecap="round"/>
<path d="M114.145 7.88386C114.228 7.87763 114.303 7.86176 114.381 7.82981C114.666 7.7127 114.94 7.56171 115.222 7.43554C115.562 7.28333 115.908 7.14579 116.251 7.00567C116.423 6.93552 116.594 6.9263 116.774 6.891C116.895 6.86728 117.013 6.84232 117.131 6.80559C117.188 6.78768 117.279 6.77782 117.326 6.74072" stroke="#D38455" stroke-width="0.691358" stroke-linecap="round"/>
<path d="M114.72 6.4182C114.635 6.4246 114.539 6.43478 114.458 6.40447C114.382 6.37627 114.306 6.35123 114.225 6.355C114.117 6.36006 113.986 6.30916 113.888 6.26321C113.796 6.21972 113.688 6.20351 113.593 6.15522C113.519 6.1178 113.436 6.07922 113.357 6.05582C113.277 6.0322 113.194 6.01001 113.119 5.98259C112.934 5.91453 112.717 5.88706 112.521 5.8509C112.215 5.79446 111.923 5.69407 111.625 5.60964C111.201 5.48981 110.769 5.35944 110.334 5.26231C110.142 5.21961 109.936 5.18181 109.754 5.10509C109.687 5.07723 109.588 5.01737 109.518 5.01864C109.45 5.0199 109.384 4.96178 109.319 4.96673" stroke="#D38455" stroke-width="0.691358" stroke-linecap="round"/>
<path d="M91.1481 6.92312C91.3333 6.90918 91.5525 6.85818 91.7358 6.90579C92.0123 6.97757 92.2602 7.12679 92.5222 7.22311C92.7192 7.2955 92.9302 7.32108 93.1255 7.39286C93.2787 7.44916 93.4579 7.50092 93.619 7.51858C93.7479 7.5327 93.857 7.60674 93.9937 7.59646C94.0995 7.5885 94.3028 7.60543 94.4038 7.6403C94.4613 7.66013 94.6641 7.61195 94.6703 7.69346C94.6725 7.72286 94.7423 7.80112 94.725 7.74313C94.7002 7.65957 94.5635 7.61182 94.5026 7.55817" stroke="#D38455" stroke-width="2.76543" stroke-linecap="round"/>
<path d="M92.2577 4.93037C92.0277 4.94768 91.7625 4.9447 91.5422 5.01259C91.3343 5.07665 91.1079 5.16977 90.8867 5.19488C90.6564 5.22102 90.4329 5.3097 90.2026 5.32702C90.0411 5.33917 89.853 5.38003 89.6988 5.43216C89.3857 5.53794 89.0547 5.57853 88.7458 5.6921C88.628 5.73542 88.5034 5.74321 88.3851 5.7805C88.1928 5.84105 87.9896 5.8957 87.7938 5.9445C87.5621 6.00224 87.324 6.07 87.1123 6.14966C86.9599 6.20702 86.7996 6.21944 86.6445 6.28794C86.5019 6.35092 86.3925 6.42045 86.2296 6.4327" stroke="#D38455" stroke-width="2.76543" stroke-linecap="round"/>
<path d="M91.4192 6.68829C91.2718 6.69938 91.5431 6.89738 91.5818 6.93153C91.6334 6.97703 91.6877 7.03592 91.731 7.07418C91.785 7.12176 91.8544 7.14853 91.904 7.20309C91.9941 7.30216 91.6711 7.07448 91.5493 7.02212C91.3277 6.92688 91.0436 6.8779 90.8049 6.89586C90.697 6.90398 90.5801 6.88021 90.4734 6.86851C90.3796 6.85824 90.2897 6.90002 90.1991 6.86673C90.0683 6.81865 89.8365 6.80736 89.6968 6.81787C89.4668 6.83518 89.2352 6.78063 89.0065 6.78914C88.8512 6.79491 88.3856 6.80896 88.5405 6.7973C88.8134 6.77677 89.0562 6.86607 89.3315 6.84536C89.4141 6.83914 89.4967 6.83293 89.5794 6.82671C89.6642 6.82033 89.7491 6.8845 89.8333 6.88828C89.991 6.89536 90.171 6.97044 90.3372 6.95794C90.3483 6.95711 90.4488 6.94536 90.3975 6.92651C90.2427 6.86961 90.0691 6.84739 89.9081 6.81691C89.7037 6.77822 89.4904 6.81735 89.294 6.77348C89.1973 6.7519 89.0725 6.78417 88.9731 6.79165C88.8669 6.79964 88.7572 6.781 88.6449 6.78945C88.1672 6.82539 87.6786 6.80837 87.1998 6.84439C86.8209 6.8729 86.442 6.9014 86.0632 6.92991C85.9753 6.93652 85.5739 6.98874 85.5314 6.91613" stroke="#D38455" stroke-width="2.76543" stroke-linecap="round"/>
<path d="M90.3427 6.33871C90.3811 6.55951 90.658 6.69252 90.675 6.91877C90.6826 7.02066 90.7251 7.07205 90.7911 7.14459C90.8386 7.19682 91.2365 7.36829 91.2562 7.31876" stroke="#D38455" stroke-width="2.76543" stroke-linecap="round"/>
<path d="M83.1 7.07706C83.2202 7.06802 83.3408 7.06093 83.4608 7.04947C83.6438 7.032 83.8136 6.96232 83.9779 6.88168C84.1081 6.81779 84.2413 6.75428 84.3563 6.66392C84.3803 6.6451 84.4192 6.62338 84.371 6.62701C84.341 6.62927 84.3278 6.63441 84.3593 6.61089C84.4201 6.5655 84.4744 6.51367 84.5269 6.45866C84.5588 6.42532 84.6655 6.36243 84.6614 6.30713" stroke="#D38455" stroke-width="1.38272" stroke-linecap="round"/>
<path d="M83.6473 6.72188C83.7321 6.7155 83.8039 6.66494 83.8736 6.61804C83.9738 6.55056 84.07 6.48206 84.1575 6.39799C84.3283 6.234 84.5481 6.13929 84.7534 6.02961C84.9187 5.94132 85.0866 5.85955 85.2636 5.7988C85.3146 5.78132 85.3651 5.76352 85.4165 5.74747C85.4321 5.74261 85.4775 5.73973 85.4889 5.72771C85.4929 5.72347 85.4311 5.74341 85.4256 5.74589C85.2546 5.82249 85.11 5.9676 84.9797 6.09985C84.7717 6.31096 84.5862 6.54504 84.3892 6.76675C84.1594 7.02541 83.9233 7.27606 83.6729 7.51383C83.5562 7.62457 83.4352 7.73086 83.3098 7.83113C83.2908 7.84629 83.2561 7.86176 83.2411 7.88194C83.236 7.88877 83.3015 7.88371 83.3059 7.88333C83.3798 7.87691 83.45 7.85015 83.5235 7.83876C83.7039 7.8108 83.8901 7.80715 84.0721 7.79346C84.2496 7.78011 84.427 7.76676 84.6045 7.75341C84.6919 7.74683 84.7797 7.74828 84.8674 7.74168C84.8984 7.73935 84.8154 7.70532 84.8058 7.70156C84.7183 7.66705 84.6197 7.68782 84.5293 7.69462C84.2654 7.71448 83.9973 7.72021 83.738 7.77653C83.4275 7.844 83.1286 7.94832 82.8158 8.00433C82.5592 8.05028 82.3002 8.07528 82.0437 8.12597C81.9855 8.13746 81.9328 8.15111 81.8775 8.1698C81.8662 8.17362 81.8381 8.18717 81.8272 8.17492C81.7599 8.09884 82.5137 7.52889 82.6196 7.43376C82.6527 7.404 82.7056 7.36534 82.7156 7.31735C82.7192 7.30048 82.6333 7.3134 82.6225 7.31541C82.5603 7.32689 82.4986 7.3673 82.4434 7.3969C82.3305 7.45748 82.213 7.49998 82.0945 7.54756C81.8681 7.63843 81.6475 7.73 81.4462 7.8702C81.3198 7.95826 81.1936 8.04594 81.0659 8.13197C81.045 8.14602 80.961 8.18508 80.9694 8.22022C80.9766 8.24998 81.0982 8.22664 81.1165 8.22526C81.2348 8.21637 81.3604 8.19946 81.4787 8.21457C81.5173 8.21951 81.5567 8.22513 81.5939 8.23723C81.6223 8.24643 81.5344 8.23593 81.5049 8.23229C81.3656 8.2151 81.2502 8.22705 81.1222 8.28927C80.9356 8.37999 80.7416 8.46088 80.5503 8.54128C80.515 8.55614 80.4781 8.56934 80.4436 8.58601C80.414 8.60034 80.4437 8.57438 80.453 8.56516" stroke="#D38455" stroke-width="1.38272" stroke-linecap="round"/>
<path d="M80.0688 8.69158C80.0205 8.69522 79.9663 8.69226 79.9209 8.71077C79.8478 8.7406 79.7867 8.79034 79.7174 8.82632C79.6629 8.85456 79.6114 8.88996 79.5596 8.92322C79.534 8.93967 79.5055 8.9484 79.4802 8.96544C79.4588 8.97986 79.5275 8.97547 79.5312 8.97547C79.6316 8.97545 79.7298 8.96718 79.829 8.95128C79.9568 8.93078 80.0861 8.92689 80.2138 8.90577C80.2472 8.90024 80.2144 8.89396 80.2002 8.89292C80.1398 8.88854 80.0794 8.88457 80.019 8.88865C79.855 8.89974 79.7028 8.9298 79.5441 8.97271C79.2433 9.05405 78.9627 9.1896 78.677 9.31183C78.5543 9.36428 78.4422 9.42963 78.3296 9.50085C78.3027 9.51786 78.1255 9.67375 78.113 9.65229" stroke="#D38455" stroke-width="0.691358" stroke-linecap="round"/>
<path d="M94.698 4.03465C94.2802 4.06609 93.8623 4.09753 93.4445 4.12896C93.3347 4.13722 93.2342 4.16658 93.1267 4.18594C93.0574 4.19842 92.9875 4.20772 92.9259 4.24536C92.901 4.26057 92.8945 4.29036 92.9229 4.30842C93.0204 4.37049 93.1712 4.34001 93.2771 4.33204C93.5077 4.31469 93.7381 4.30927 93.9686 4.29192C94.0594 4.28509 94.1516 4.26892 94.2385 4.24185C94.4144 4.18711 94.5955 4.15123 94.7692 4.08882C94.9815 4.01256 95.2033 3.99663 95.4259 3.97989C95.6616 3.96215 95.8974 3.94441 96.1332 3.92667C96.4156 3.90543 96.698 3.88418 96.9804 3.86293C97.1391 3.85099 97.3003 3.85077 97.4601 3.83875C97.5607 3.83118 97.6561 3.83932 97.7525 3.86437" stroke="#D38455" stroke-width="0.691358" stroke-linecap="round"/>
<path d="M97.7721 3.8155C98.0981 3.79097 98.4218 3.75472 98.748 3.73017C98.954 3.71467 99.1613 3.71098 99.3664 3.69555C99.5512 3.68165 99.7504 3.6716 99.9354 3.68251C100.04 3.6887 100.146 3.6799 100.251 3.68586C100.306 3.68892 100.371 3.67852 100.424 3.6934C100.478 3.70889 100.556 3.68942 100.611 3.68522C100.711 3.67774 100.81 3.67025 100.91 3.66277C100.981 3.65744 101.028 3.63247 101.095 3.66074" stroke="#D38455" stroke-width="0.691358" stroke-linecap="round"/>
<path d="M93.3619 5.97373C93.4695 5.96564 93.5684 5.99994 93.6676 6.04166C93.8848 6.13307 94.0935 6.24866 94.3071 6.34908C94.3367 6.36296 94.3549 6.38869 94.3809 6.4099C94.4275 6.44792 94.4773 6.48689 94.538 6.49599C94.5557 6.49864 94.5787 6.50208 94.5993 6.50501C94.6164 6.50744 94.5702 6.46037 94.5686 6.45883C94.4958 6.38807 94.4166 6.32458 94.3394 6.25905C94.0893 6.04675 93.8454 5.82567 93.5854 5.62593C93.5259 5.58023 93.4664 5.53627 93.4083 5.48892C93.3182 5.41549 93.2228 5.34387 93.1453 5.25593C93.1241 5.23191 93.1083 5.22036 93.1058 5.18767C93.1021 5.1381 93.1077 5.09889 93.121 5.05105C93.1424 4.97393 93.1529 4.89637 93.1685 4.81803C93.179 4.76545 93.1793 4.70826 93.2045 4.65983C93.2183 4.63348 93.2397 4.59953 93.2445 4.56953C93.2605 4.46872 93.2239 4.37572 93.1552 4.30346C93.1271 4.27388 93.0604 4.22976 93.0568 4.18265C93.0536 4.13946 93.0935 4.14483 93.1199 4.13668C93.1357 4.13181 93.1508 4.12224 93.1664 4.11743C93.1774 4.11404 93.1727 4.12415 93.1687 4.12907C93.1468 4.15625 93.1174 4.17422 93.0916 4.19731C93.0041 4.27588 92.9408 4.37918 92.8823 4.481C92.7887 4.6437 92.705 4.81803 92.6481 4.99812C92.6184 5.09246 92.5874 5.19215 92.5836 5.29213C92.5817 5.34133 92.5863 5.38567 92.6262 5.41804C92.7111 5.48692 92.8154 5.53802 92.9088 5.59288C93.1144 5.71362 93.3248 5.82595 93.5329 5.94207C93.7873 6.08406 94.0605 6.20453 94.282 6.39977C94.2838 6.40136 94.3118 6.42726 94.3037 6.42117C94.2634 6.3911 94.2034 6.37242 94.1579 6.35515C93.9019 6.25782 93.6393 6.17813 93.3809 6.08778C93.0033 5.95579 92.6284 5.81614 92.2493 5.68887C92.0932 5.63645 91.9371 5.57726 91.7756 5.54448C91.7421 5.53768 91.705 5.52554 91.6705 5.52814C91.6068 5.53293 91.7779 5.62563 91.7873 5.62968C91.9221 5.68813 92.0666 5.71773 92.2022 5.77455C92.4753 5.88897 92.7315 6.0399 92.9753 6.20953C93.1354 6.32089 93.2992 6.43177 93.4528 6.55247C93.4823 6.57561 93.5255 6.60324 93.5449 6.63647" stroke="#D38455" stroke-width="0.691358" stroke-linecap="round"/>
<path d="M115.645 6.78587C115.649 6.69661 116.089 6.826 116.008 6.69411C115.912 6.53668 115.543 6.32485 115.352 6.32473C115.194 6.32462 114.996 6.25308 114.921 6.45375C114.849 6.64624 115.071 6.81236 114.984 7.01274C114.932 7.13461 114.76 7.5209 115.073 7.30852C115.273 7.17314 115.368 6.94769 115.544 6.79345C115.615 6.73156 115.603 6.63626 115.693 6.58186C115.824 6.50168 115.756 6.48642 115.635 6.44836C115.509 6.40857 115.369 6.35564 115.236 6.36564C114.869 6.39325 115.191 6.71443 115.378 6.78985C115.593 6.87632 115.792 6.83923 116.018 6.82223C116.098 6.81624 116.204 6.83298 116.254 6.75615C116.294 6.69439 116.296 6.51608 116.378 6.5052C116.433 6.49791 116.533 6.5284 116.572 6.57117C116.67 6.67853 116.308 6.67072 116.265 6.67477C116.001 6.69962 115.769 6.82568 115.533 6.93929C115.235 7.08232 114.932 7.17896 114.65 7.35108C114.44 7.47951 114.287 7.71673 114.108 7.88219C114.022 7.96243 113.866 8.1479 113.983 8.27998C114.038 8.34173 114.199 8.4266 114.283 8.42023C114.337 8.41617 114.161 8.37062 114.157 8.31523" stroke="#D38455" stroke-width="0.691358" stroke-linecap="round"/>
<path d="M114.149 8.21973C113.92 8.23697 113.69 8.25422 113.461 8.27147C113.332 8.28119 113.156 8.42046 113.338 8.53132C113.497 8.62884 113.725 8.60598 113.901 8.59272C114.088 8.57867 113.925 8.57412 113.827 8.53389C113.612 8.44614 113.329 8.40982 113.098 8.46163C113.03 8.47697 112.738 8.54598 112.7 8.60254C112.663 8.65778 112.34 8.69107 112.267 8.71568C111.838 8.86072 111.39 8.91051 110.934 8.94481" stroke="#D38455" stroke-width="0.691358" stroke-linecap="round"/>
<path d="M103.215 9.55748C102.858 9.58434 102.487 9.64373 102.133 9.60494C101.872 9.57639 101.583 9.48699 101.325 9.5064C101.138 9.52051 100.943 9.53847 100.759 9.50069C100.379 9.42286 99.9826 9.45706 99.6016 9.39269C99.0209 9.29458 98.4409 9.19169 97.8713 9.05042C97.5754 8.97705 97.3135 8.87432 97.0496 8.71494C96.7143 8.5124 96.3808 8.314 96.0516 8.10102C95.9414 8.02975 95.8334 7.9637 95.8231 7.8265" stroke="#D38455" stroke-width="0.691358" stroke-linecap="round"/>
<path d="M104.711 3.91511C104.716 3.80612 105.411 3.94807 105.494 3.96283C105.527 3.96866 105.559 3.97985 105.591 3.99012C105.652 4.00979 105.465 3.96882 105.404 3.95186C105.12 3.87331 104.826 3.91583 104.539 3.87479C104.437 3.86025 104.32 3.83754 104.226 3.79168C104.055 3.70825 104.599 3.85718 104.786 3.88284C105.262 3.94801 105.734 4.03947 106.209 4.11244C106.803 4.20358 107.411 4.34964 107.97 4.58514C108.196 4.68003 108.443 4.70191 108.674 4.77209C108.799 4.80989 108.923 4.85343 109.047 4.89014C109.11 4.90865 109.145 4.93215 109.21 4.92726" stroke="#D38455" stroke-width="0.691358" stroke-linecap="round"/>
<path d="M113.772 7.89258C113.341 7.92501 112.911 8.08751 112.5 8.21418C112.327 8.26758 112.166 8.36556 111.981 8.37948C111.904 8.38528 111.744 8.41675 111.674 8.4506C111.605 8.48419 111.521 8.4755 111.446 8.48732C111.2 8.52636 110.949 8.56149 110.704 8.60545C110.458 8.64941 110.228 8.70345 109.977 8.7224C108.96 8.79892 107.942 8.93949 106.921 9.0163" stroke="#D38455" stroke-width="0.691358" stroke-linecap="round"/>
<path d="M106.95 8.98268C105.749 9.07307 104.554 9.16354 103.353 9.1555C103.099 9.1538 102.841 9.13493 102.587 9.12598C102.278 9.1151 101.969 9.19819 101.661 9.18143C101.492 9.17226 101.33 9.1814 101.162 9.19407C101.098 9.19887 100.998 9.22621 100.937 9.20388C100.822 9.16157 100.682 9.1866 100.559 9.16826C100.407 9.14544 100.24 9.10785 100.087 9.11489C99.9233 9.12239 99.7573 9.10767 99.5873 9.12046" stroke="#D38455" stroke-width="0.691358" stroke-linecap="round"/>
<path d="M97.4581 4.87493C97.3834 4.80906 97.3167 4.73249 97.2495 4.65886C97.1258 4.52345 96.9791 4.41386 96.8471 4.28759C96.774 4.21767 96.6959 4.15466 96.6236 4.08382C96.5959 4.05664 96.5576 4.0204 96.52 4.01063" stroke="#D38455" stroke-width="0.691358" stroke-linecap="round"/>
<path d="M111.858 7.96019C111.864 7.986 111.913 7.97054 111.932 7.97278C112.004 7.98141 112.065 8.0383 112.127 8.07318C112.144 8.08274 112.306 8.15726 112.267 8.14975C112.125 8.12201 112.006 7.99234 111.866 7.95224C111.778 7.92722 111.685 7.85485 111.591 7.86192" stroke="#D38455" stroke-width="0.691358" stroke-linecap="round"/>
<path d="M96.0331 7.9883C96.3304 8.00386 96.7285 8.24066 96.9983 8.39065C97.288 8.55166 97.5267 8.7468 97.7977 8.93134C97.8372 8.95822 98.1616 9.12125 98.0018 9.11693C97.7426 9.10993 97.4899 8.97947 97.2369 8.92887C96.9552 8.87253 96.6767 8.90201 96.3935 8.88272C95.8647 8.84669 95.3632 8.66418 94.848 8.58695C94.8177 8.5824 94.7538 8.51966 94.7513 8.48664C94.7458 8.41353 95.0414 8.42828 95.0873 8.42482C95.3569 8.40454 95.811 8.36366 96.0635 8.49753C96.3072 8.62672 96.599 8.67048 96.827 8.82574C96.9687 8.92221 97.0741 9.08313 97.2102 9.17853C97.3791 9.29702 96.8265 9.02867 96.6466 8.92863C96.587 8.89552 96.3503 8.73631 96.2817 8.81806C96.1945 8.92199 96.3547 9.13473 96.4321 9.18429C96.5766 9.27676 96.7009 9.28991 96.8611 9.27787C96.9733 9.26942 97.058 9.34841 97.1567 9.3632C97.3392 9.39056 97.6084 9.49374 97.7598 9.61215C97.907 9.72726 98.2193 9.76027 98.3939 9.74713C98.6152 9.73048 98.8563 9.74888 99.0881 9.73144C99.1944 9.72344 99.3008 9.71543 99.4072 9.70743C99.5586 9.69603 99.7577 9.76939 99.4714 9.66606C98.9134 9.46468 98.2751 9.64065 97.744 9.40224C97.7146 9.38903 97.6583 9.36567 97.6601 9.36593C97.8792 9.39879 98.1122 9.53069 98.3219 9.6064C98.6381 9.7205 98.8956 9.65821 99.2108 9.70394C99.4783 9.74275 99.7429 9.71871 100.013 9.69841" stroke="#D38455" stroke-width="0.691358" stroke-linecap="round"/>
<path d="M93.2397 5.45898C93.3005 5.4465 93.3951 5.2738 93.4361 5.22498C93.5315 5.11131 93.6222 4.98239 93.7312 4.88207C93.8786 4.74639 94.0418 4.62623 94.1834 4.49485C94.387 4.30595 94.8424 4.3519 95.0983 4.33265C95.1253 4.33062 95.4933 4.29454 95.4427 4.2499C95.1631 4.0035 94.4827 4.11762 94.1474 4.14843C93.8777 4.17322 93.6102 4.26529 93.4332 4.47619C93.3552 4.56912 93.3247 4.74205 93.226 4.80235" stroke="#D38455" stroke-width="0.691358" stroke-linecap="round"/>
<path d="M112.829 8.70045C112.954 8.69104 113.154 8.63946 113.268 8.70487" stroke="#D38455" stroke-width="0.691358" stroke-linecap="round"/>
<path d="M111.314 8.96436C110.571 9.02028 109.82 9.09369 109.087 9.22553C108.489 9.33299 107.9 9.51083 107.294 9.56635C107.097 9.58438 106.904 9.63309 106.707 9.64792C106.639 9.65304 106.468 9.69809 106.415 9.65118" stroke="#D38455" stroke-width="0.691358" stroke-linecap="round"/>
<path d="M107.575 9.28265C106.649 9.3523 105.728 9.45902 104.802 9.52869C104.179 9.57556 103.569 9.43336 102.946 9.42918C102.509 9.42626 102.08 9.44778 101.645 9.48546C101.295 9.51569 100.947 9.55669 100.596 9.58304C100.477 9.59201 100.385 9.68786 100.266 9.70148C100.237 9.70484 100.227 9.72258 100.229 9.75105C100.234 9.80433 100.31 9.79173 100.346 9.79322C100.473 9.79845 100.598 9.78882 100.725 9.7793C100.901 9.76601 101.08 9.73385 101.259 9.72036C101.415 9.70863 101.573 9.75296 101.727 9.74135C101.878 9.72995 102.058 9.75407 102.206 9.78951C102.294 9.81057 102.399 9.79612 102.489 9.79735C102.599 9.79887 102.708 9.80991 102.819 9.80998C103.101 9.81017 103.39 9.81323 103.673 9.82893C103.813 9.83674 103.958 9.82383 104.099 9.82393C104.234 9.82402 104.374 9.823 104.509 9.81282C104.762 9.7938 105.013 9.8123 105.267 9.79326C105.495 9.77605 105.73 9.79582 105.959 9.77863C106.03 9.77325 106.368 9.79539 106.384 9.72789" stroke="#D38455" stroke-width="0.691358" stroke-linecap="round"/>
<path d="M97.9821 8.83573C98.1338 8.82432 98.2854 8.81291 98.4371 8.80149C98.5548 8.79264 98.6653 8.84505 98.7821 8.83626" stroke="#D38455" stroke-width="0.691358" stroke-linecap="round"/>
<path d="M114.477 7.2022C114.47 7.10467 114.602 7.00728 114.617 6.89618C114.631 6.79375 114.66 6.71005 114.651 6.59814" stroke="#D38455" stroke-width="0.691358" stroke-linecap="round"/>
<path d="M101.35 3.60958C101.729 3.58106 102.085 3.57688 102.462 3.6316C102.837 3.68597 103.187 3.84419 103.555 3.92044C103.691 3.94859 103.843 4.0077 103.972 4.06001C104.229 4.16476 104.002 3.94518 103.898 3.87437C103.778 3.79191 103.64 3.72984 103.508 3.67436C103.44 3.64587 103.562 3.71658 103.586 3.72468C103.623 3.73692 103.691 3.7834 103.71 3.73562" stroke="#D38455" stroke-width="0.691358" stroke-linecap="round"/>
<path d="M113.763 7.67472C113.955 7.6603 114.104 7.46068 114.213 7.31598C114.269 7.2418 114.41 7.08194 114.402 6.979" stroke="#D38455" stroke-width="0.691358" stroke-linecap="round"/>
<path d="M94.4239 4.7951C94.2208 4.81038 94.0887 5.04538 94.0442 5.22774C93.9943 5.43217 94.0522 5.51094 94.205 5.63808C94.4269 5.82265 94.4558 5.62712 94.3997 5.42599C94.35 5.2481 94.3251 5.09025 94.3113 4.90688C94.2975 4.72345 94.5374 4.67811 94.6657 4.6139C94.9338 4.47972 94.6065 4.57517 94.4859 4.66645C94.2147 4.87179 94.0255 5.09084 93.8008 5.35855C93.6592 5.52733 93.856 5.6583 94.0067 5.71269C94.2514 5.80098 94.4352 5.91772 94.6335 6.09257C95.1974 6.5896 95.5878 7.27338 96.0818 7.83178C96.3629 8.14941 95.5436 7.17355 95.3067 6.82022C95.1188 6.54005 94.9926 6.16554 94.7511 5.9276C94.7169 5.8939 94.6969 5.74296 94.7005 5.79136C94.712 5.9445 94.9153 6.06824 95.0109 6.16519C95.3148 6.47339 95.6606 6.72755 95.9635 7.03254C96.2369 7.30793 96.6193 7.62326 96.8176 7.96239C96.936 8.16495 97.186 8.29429 97.3959 8.38265C98.1521 8.7009 98.9231 8.98784 99.6837 9.30795C99.7453 9.33389 99.8086 9.35641 99.8688 9.38586C99.877 9.38989 99.6553 9.30367 99.5915 9.27356C99.2883 9.1306 98.9171 9.14127 98.5954 9.04775C98.1714 8.92452 97.6917 8.85489 97.2973 8.64951C97.0099 8.49991 96.7052 8.35404 96.4487 8.15086C95.8673 7.69043 95.5194 6.95688 95.0761 6.3761C94.9788 6.24859 95.0416 6.08629 94.9636 5.95294C94.8901 5.82716 94.792 5.69726 94.7611 5.55492C94.7239 5.38314 94.5977 5.20296 94.5042 5.05768C94.3039 4.74651 92.8474 6.22743 92.6874 6.37215" stroke="#D38455" stroke-width="0.691358" stroke-linecap="round"/>
<path d="M100.707 9.07884C100.792 9.06144 100.636 8.40658 100.966 8.82364C100.999 8.8646 101.131 9.03215 101.1 9.01751C100.86 8.90221 100.719 8.75161 100.425 8.77371C100.241 8.7876 100.085 8.88093 99.8991 8.89487C99.7862 8.90337 99.6733 8.91186 99.5604 8.92035C99.3076 8.93937 99.0636 8.83536 98.819 8.85377" stroke="#D38455" stroke-width="0.691358" stroke-linecap="round"/>
<path d="M94.781 4.85078C94.8079 4.85218 94.8021 4.95478 94.804 4.97483C94.8132 5.07345 94.8779 5.17041 94.9237 5.2562C94.9959 5.39158 95.1015 5.50744 95.1752 5.63867C95.2171 5.71317 95.2727 5.78103 95.3208 5.85132C95.3673 5.91934 95.4014 6.00107 95.452 6.06505C95.4837 6.10509 95.4989 6.1719 95.5115 6.22129C95.5186 6.2488 95.5586 6.37722 95.5637 6.37109" stroke="#D38455" stroke-width="0.691358" stroke-linecap="round"/>
<path d="M96.8168 7.61832C96.822 7.64422 96.8877 7.68914 96.9055 7.70947C96.9697 7.78262 97.0405 7.85207 97.1121 7.91753C97.1836 7.98284 97.2682 8.13972 97.3625 8.16422" stroke="#D38455" stroke-width="0.691358" stroke-linecap="round"/>
<path d="M112.34 8.08279C112.533 8.06833 112.709 7.93842 112.868 7.83631C113.135 7.6649 113.418 7.52581 113.681 7.34741C113.784 7.27748 113.984 7.26071 114.001 7.11182" stroke="#D38455" stroke-width="0.691358" stroke-linecap="round"/>
</svg>
