<svg width="20" height="21" viewBox="0 0 20 21" fill="none" xmlns="http://www.w3.org/2000/svg">
<path d="M18.0001 15H20.0001V17H0.00012207V15H2.00012V8C2.00012 5.87827 2.84298 3.84344 4.34327 2.34315C5.84356 0.842855 7.87839 0 10.0001 0C12.1219 0 14.1567 0.842855 15.657 2.34315C17.1573 3.84344 18.0001 5.87827 18.0001 8V15ZM16.0001 15V8C16.0001 6.4087 15.368 4.88258 14.2428 3.75736C13.1175 2.63214 11.5914 2 10.0001 2C8.40882 2 6.8827 2.63214 5.75748 3.75736C4.63226 4.88258 4.00012 6.4087 4.00012 8V15H16.0001ZM7.00012 19H13.0001V21H7.00012V19Z" fill="#123055"/>
<path d="M18.0001 15H20.0001V17H0.00012207V15H2.00012V8C2.00012 5.87827 2.84298 3.84344 4.34327 2.34315C5.84356 0.842855 7.87839 0 10.0001 0C12.1219 0 14.1567 0.842855 15.657 2.34315C17.1573 3.84344 18.0001 5.87827 18.0001 8V15ZM16.0001 15V8C16.0001 6.4087 15.368 4.88258 14.2428 3.75736C13.1175 2.63214 11.5914 2 10.0001 2C8.40882 2 6.8827 2.63214 5.75748 3.75736C4.63226 4.88258 4.00012 6.4087 4.00012 8V15H16.0001ZM7.00012 19H13.0001V21H7.00012V19Z" fill="black" fill-opacity="0.2"/>
</svg>
