<svg width="32" height="32" viewBox="0 0 32 32" fill="none" xmlns="http://www.w3.org/2000/svg">
<g clip-path="url(#clip0_255_4423)">
<rect width="32" height="32" rx="8" fill="#F9F3EE"/>
<path d="M16.0009 8.52895C18.3499 6.41999 21.9798 6.48999 24.2428 8.75695C26.5047 11.0249 26.5827 14.6368 24.4788 16.9928L15.9989 25.4846L7.5211 16.9928C5.41714 14.6368 5.49614 11.0189 7.7571 8.75695C10.0221 6.49299 13.645 6.41699 16.0009 8.52895ZM22.8268 10.1699C21.3268 8.66795 18.9069 8.60695 17.3369 10.0169L16.0019 11.2149L14.666 10.0179C13.091 8.60595 10.676 8.66795 9.17207 10.1719C7.6821 11.6619 7.6071 14.0468 8.98007 15.6228L15.9999 22.6537L23.0198 15.6238C24.3938 14.0468 24.3188 11.6649 22.8268 10.1699Z" fill="#123055"/>
<path d="M16.0009 8.52895C18.3499 6.41999 21.9798 6.48999 24.2428 8.75695C26.5047 11.0249 26.5827 14.6368 24.4788 16.9928L15.9989 25.4846L7.5211 16.9928C5.41714 14.6368 5.49614 11.0189 7.7571 8.75695C10.0221 6.49299 13.645 6.41699 16.0009 8.52895ZM22.8268 10.1699C21.3268 8.66795 18.9069 8.60695 17.3369 10.0169L16.0019 11.2149L14.666 10.0179C13.091 8.60595 10.676 8.66795 9.17207 10.1719C7.6821 11.6619 7.6071 14.0468 8.98007 15.6228L15.9999 22.6537L23.0198 15.6238C24.3938 14.0468 24.3188 11.6649 22.8268 10.1699Z" fill="black" fill-opacity="0.2"/>
</g>
<defs>
<clipPath id="clip0_255_4423">
<rect width="32" height="32" rx="8" fill="white"/>
</clipPath>
</defs>
</svg>
