<svg width="65" height="64" viewBox="0 0 65 64" fill="none" xmlns="http://www.w3.org/2000/svg">
<g clip-path="url(#clip0_157_4328)">
<path d="M56.5 16H51.1667V13.3333H13.8333V50.6667H51.1667V48H56.5V53.3333C56.5 54.0406 56.2191 54.7189 55.719 55.219C55.2189 55.7191 54.5406 56 53.8333 56H11.1667C10.4594 56 9.78115 55.7191 9.28105 55.219C8.78095 54.7189 8.5 54.0406 8.5 53.3333V10.6667C8.5 9.95942 8.78095 9.28115 9.28105 8.78105C9.78115 8.28095 10.4594 8 11.1667 8H53.8333C54.5406 8 55.2189 8.28095 55.719 8.78105C56.2191 9.28115 56.5 9.95942 56.5 10.6667V16ZM16.5 16H21.8333V24H16.5V16ZM40.5 42.6667C43.329 42.6667 46.0421 41.5429 48.0425 39.5425C50.0429 37.5421 51.1667 34.829 51.1667 32C51.1667 29.171 50.0429 26.4579 48.0425 24.4575C46.0421 22.4571 43.329 21.3333 40.5 21.3333C37.671 21.3333 34.9579 22.4571 32.9575 24.4575C30.9571 26.4579 29.8333 29.171 29.8333 32C29.8333 34.829 30.9571 37.5421 32.9575 39.5425C34.9579 41.5429 37.671 42.6667 40.5 42.6667ZM40.5 48C36.2565 48 32.1869 46.3143 29.1863 43.3137C26.1857 40.3131 24.5 36.2435 24.5 32C24.5 27.7565 26.1857 23.6869 29.1863 20.6863C32.1869 17.6857 36.2565 16 40.5 16C44.7435 16 48.8131 17.6857 51.8137 20.6863C54.8143 23.6869 56.5 27.7565 56.5 32C56.5 36.2435 54.8143 40.3131 51.8137 43.3137C48.8131 46.3143 44.7435 48 40.5 48ZM40.5 37.3333C39.0855 37.3333 37.729 36.7714 36.7288 35.7712C35.7286 34.771 35.1667 33.4145 35.1667 32C35.1667 30.5855 35.7286 29.229 36.7288 28.2288C37.729 27.2286 39.0855 26.6667 40.5 26.6667C41.9145 26.6667 43.271 27.2286 44.2712 28.2288C45.2714 29.229 45.8333 30.5855 45.8333 32C45.8333 33.4145 45.2714 34.771 44.2712 35.7712C43.271 36.7714 41.9145 37.3333 40.5 37.3333Z" fill="#F9F3EE"/>
</g>
<defs>
<clipPath id="clip0_157_4328">
<rect width="64" height="64" fill="white" transform="translate(0.5)"/>
</clipPath>
</defs>
</svg>
