<svg width="65" height="64" viewBox="0 0 65 64" fill="none" xmlns="http://www.w3.org/2000/svg">
<g clip-path="url(#clip0_157_4331)">
<path d="M32.5 2.6665L54.412 7.53584C55.6307 7.80784 56.5 8.88784 56.5 10.1385V36.7705C56.5 42.1198 53.8253 47.1172 49.3747 50.0825L32.5 61.3332L15.6253 50.0825C11.172 47.1145 8.5 42.1198 8.5 36.7732V10.1385C8.5 8.88784 9.36933 7.80784 10.588 7.53584L32.5 2.6665ZM32.5 8.1305L13.8333 12.2772V36.7705C13.8333 40.3358 15.6147 43.6665 18.5827 45.6452L32.5 54.9252L46.4173 45.6452C49.3853 43.6665 51.1667 40.3385 51.1667 36.7732V12.2772L32.5 8.1305ZM44.372 21.9252L48.1453 25.6958L31.1747 42.6665L19.86 31.3518L23.6307 27.5812L31.172 35.1225L44.372 21.9225V21.9252Z" fill="#F9F3EE"/>
</g>
<defs>
<clipPath id="clip0_157_4331">
<rect width="64" height="64" fill="white" transform="translate(0.5)"/>
</clipPath>
</defs>
</svg>
