<svg width="32" height="32" viewBox="0 0 32 32" fill="none" xmlns="http://www.w3.org/2000/svg">
<g clip-path="url(#clip0_124_3495)">
<path d="M16.0001 2.6665C23.3641 2.6665 29.3334 8.63584 29.3334 15.9998C29.3334 23.3638 23.3641 29.3332 16.0001 29.3332C8.63608 29.3332 2.66675 23.3638 2.66675 15.9998C2.66675 8.63584 8.63608 2.6665 16.0001 2.6665ZM16.0001 5.33317C13.1711 5.33317 10.458 6.45698 8.45761 8.45736C6.45722 10.4578 5.33341 13.1709 5.33341 15.9998C5.33341 18.8288 6.45722 21.5419 8.45761 23.5423C10.458 25.5427 13.1711 26.6665 16.0001 26.6665C18.8291 26.6665 21.5422 25.5427 23.5426 23.5423C25.5429 21.5419 26.6667 18.8288 26.6667 15.9998C26.6667 13.1709 25.5429 10.4578 23.5426 8.45736C21.5422 6.45698 18.8291 5.33317 16.0001 5.33317ZM18.6667 13.3332C19.0204 13.3332 19.3595 13.4736 19.6096 13.7237C19.8596 13.9737 20.0001 14.3129 20.0001 14.6665V19.9998H18.0001V25.3332H14.0001V19.9998H12.0001V14.6665C12.0001 14.3129 12.1406 13.9737 12.3906 13.7237C12.6407 13.4736 12.9798 13.3332 13.3334 13.3332H18.6667ZM16.0001 6.6665C16.7073 6.6665 17.3856 6.94745 17.8857 7.44755C18.3858 7.94765 18.6667 8.62593 18.6667 9.33317C18.6667 10.0404 18.3858 10.7187 17.8857 11.2188C17.3856 11.7189 16.7073 11.9998 16.0001 11.9998C15.2928 11.9998 14.6146 11.7189 14.1145 11.2188C13.6144 10.7187 13.3334 10.0404 13.3334 9.33317C13.3334 8.62593 13.6144 7.94765 14.1145 7.44755C14.6146 6.94745 15.2928 6.6665 16.0001 6.6665Z" fill="#395F8D"/>
</g>
<defs>
<clipPath id="clip0_124_3495">
<rect width="32" height="32" fill="white"/>
</clipPath>
</defs>
</svg>
