<svg width="32" height="26" viewBox="0 0 32 26" fill="none" xmlns="http://www.w3.org/2000/svg">
<path d="M6.49722 1.28952e-08H25.5026C25.7129 -2.92445e-05 25.9203 0.0497273 26.1078 0.145202C26.2953 0.240677 26.4575 0.379161 26.5812 0.549333L31.6786 7.55733C31.7692 7.68203 31.8138 7.83427 31.8048 7.98815C31.7958 8.14204 31.7337 8.28804 31.6292 8.40133L16.4892 24.8027C16.3693 24.9323 16.2028 25.0091 16.0263 25.0161C15.8498 25.0231 15.6777 24.9597 15.5479 24.84C15.5385 24.832 10.4812 19.3533 0.370549 8.40133C0.26602 8.28804 0.203979 8.14204 0.194984 7.98815C0.18599 7.83427 0.230597 7.68203 0.321215 7.55733L5.41855 0.549333C5.54226 0.379161 5.70448 0.240677 5.89195 0.145202C6.07942 0.0497273 6.28683 -2.92445e-05 6.49722 1.28952e-08ZM7.17722 2.66667L3.44388 7.8L15.9999 21.4L28.5559 7.8L24.8226 2.66667H7.17722Z" fill="#395F8D"/>
</svg>
