<svg width="32" height="32" viewBox="0 0 32 32" fill="none" xmlns="http://www.w3.org/2000/svg">
<g clip-path="url(#clip0_124_3490)">
<path d="M5.33341 24.0001H12.6667V25.6668C12.6667 26.6392 12.2804 27.5719 11.5928 28.2595C10.9052 28.9471 9.97254 29.3334 9.00008 29.3334C8.02762 29.3334 7.09499 28.9471 6.40736 28.2595C5.71972 27.5719 5.33341 26.6392 5.33341 25.6668V24.0001ZM10.7441 18.6668L10.8041 18.4908C11.8267 15.6828 12.0001 15.1601 12.0001 14.6668C12.0001 13.6668 11.7294 12.4761 11.2961 11.6361C10.9734 11.0094 10.7467 10.8268 10.6667 10.8268C8.96008 10.8268 7.33341 12.6454 7.33341 14.6668C7.33341 15.9454 7.43342 17.0308 7.63608 18.3441L7.68675 18.6668H10.7441ZM10.6667 8.1601C13.3334 8.1601 14.6667 12.0001 14.6667 14.6668C14.6667 16.0001 14.0001 17.3334 13.3334 19.3334L12.6667 21.3334H5.33341C5.33341 20.0001 4.66675 18.0001 4.66675 14.6668C4.66675 11.3334 7.33075 8.1601 10.6667 8.1601ZM26.7388 18.7974L26.4494 20.4388C26.2806 21.3966 25.7381 22.248 24.9415 22.8059C24.1448 23.3638 23.1592 23.5823 22.2014 23.4134C21.2436 23.2446 20.3922 22.7022 19.8343 21.9055C19.2764 21.1089 19.0579 20.1232 19.2267 19.1654L19.5174 17.5254L26.7388 18.7974ZM25.3387 13.1361C25.5587 12.4694 25.7401 11.9428 25.7427 11.9361C26.0121 11.0588 26.2241 10.1988 26.3894 9.25877C26.7401 7.26944 25.4534 5.1961 23.7734 4.89877C23.6947 4.88544 23.4401 5.02544 23.0134 5.58544C22.4401 6.33877 21.9681 7.46544 21.7934 8.4481C21.7161 8.8881 21.7281 8.9881 22.1534 11.4654C22.2134 11.8068 22.2628 12.1134 22.3081 12.4214L22.3347 12.6054L25.3387 13.1361ZM24.2374 2.27344C27.5227 2.8521 29.5947 6.43877 29.0161 9.72144C28.4374 13.0054 27.4334 14.8588 27.2027 16.1721L19.9801 14.8988L19.6707 12.8134C19.3614 10.7281 18.9374 9.29877 19.1681 7.98677C19.6307 5.3601 21.6107 1.81077 24.2374 2.27344Z" fill="#395F8D"/>
</g>
<defs>
<clipPath id="clip0_124_3490">
<rect width="32" height="32" fill="white"/>
</clipPath>
</defs>
</svg>
