<svg width="32" height="32" viewBox="0 0 32 32" fill="none" xmlns="http://www.w3.org/2000/svg">
<g clip-path="url(#clip0_124_3479)">
<path d="M7.33337 28.0002C6.54544 28.0002 5.76523 27.845 5.03727 27.5434C4.30932 27.2419 3.64788 26.8 3.09073 26.2428C2.53358 25.6856 2.09163 25.0242 1.7901 24.2963C1.48857 23.5683 1.33337 22.7881 1.33337 22.0002C1.33337 21.2122 1.48857 20.432 1.7901 19.7041C2.09163 18.9761 2.53358 18.3147 3.09073 17.7575C3.64788 17.2004 4.30932 16.7584 5.03727 16.4569C5.76523 16.1554 6.54544 16.0002 7.33337 16.0002C8.92467 16.0002 10.4508 16.6323 11.576 17.7575C12.7012 18.8827 13.3334 20.4089 13.3334 22.0002C13.3334 23.5915 12.7012 25.1176 11.576 26.2428C10.4508 27.368 8.92467 28.0002 7.33337 28.0002ZM7.33337 25.3335C8.21743 25.3335 9.06528 24.9823 9.6904 24.3572C10.3155 23.7321 10.6667 22.8842 10.6667 22.0002C10.6667 21.1161 10.3155 20.2683 9.6904 19.6431C9.06528 19.018 8.21743 18.6668 7.33337 18.6668C6.44932 18.6668 5.60147 19.018 4.97635 19.6431C4.35123 20.2683 4.00004 21.1161 4.00004 22.0002C4.00004 22.8842 4.35123 23.7321 4.97635 24.3572C5.60147 24.9823 6.44932 25.3335 7.33337 25.3335ZM24.6667 28.0002C23.8788 28.0002 23.0986 27.845 22.3706 27.5434C21.6427 27.2419 20.9812 26.8 20.4241 26.2428C19.8669 25.6856 19.425 25.0242 19.1234 24.2963C18.8219 23.5683 18.6667 22.7881 18.6667 22.0002C18.6667 21.2122 18.8219 20.432 19.1234 19.7041C19.425 18.9761 19.8669 18.3147 20.4241 17.7575C20.9812 17.2004 21.6427 16.7584 22.3706 16.4569C23.0986 16.1554 23.8788 16.0002 24.6667 16.0002C26.258 16.0002 27.7841 16.6323 28.9093 17.7575C30.0346 18.8827 30.6667 20.4089 30.6667 22.0002C30.6667 23.5915 30.0346 25.1176 28.9093 26.2428C27.7841 27.368 26.258 28.0002 24.6667 28.0002ZM24.6667 25.3335C25.5508 25.3335 26.3986 24.9823 27.0237 24.3572C27.6489 23.7321 28 22.8842 28 22.0002C28 21.1161 27.6489 20.2683 27.0237 19.6431C26.3986 19.018 25.5508 18.6668 24.6667 18.6668C23.7827 18.6668 22.9348 19.018 22.3097 19.6431C21.6846 20.2683 21.3334 21.1161 21.3334 22.0002C21.3334 22.8842 21.6846 23.7321 22.3097 24.3572C22.9348 24.9823 23.7827 25.3335 24.6667 25.3335ZM14.6974 13.7402L17.3334 16.0002V24.0002H14.6667V17.3335L11.0414 14.3122C10.7188 14.0905 10.4489 13.8005 10.251 13.4627C10.0531 13.125 9.93193 12.7478 9.89617 12.358C9.86041 11.9682 9.91091 11.5753 10.0441 11.2072C10.1772 10.8391 10.3898 10.5049 10.6667 10.2282L14.4374 6.4575C14.685 6.20976 14.979 6.01324 15.3026 5.87916C15.6262 5.74508 15.9731 5.67606 16.3234 5.67606C16.6737 5.67606 17.0205 5.74508 17.3441 5.87916C17.6677 6.01324 17.9617 6.20976 18.2094 6.4575L20.0947 8.34283C21.5067 9.75992 23.3384 10.6835 25.3174 10.9762L25.304 13.6628C22.6189 13.3537 20.1179 12.1434 18.2094 10.2295L14.6974 13.7402ZM21.3334 6.66683C20.6261 6.66683 19.9479 6.38588 19.4478 5.88578C18.9477 5.38568 18.6667 4.70741 18.6667 4.00016C18.6667 3.29292 18.9477 2.61464 19.4478 2.11454C19.9479 1.61445 20.6261 1.3335 21.3334 1.3335C22.0406 1.3335 22.7189 1.61445 23.219 2.11454C23.7191 2.61464 24 3.29292 24 4.00016C24 4.70741 23.7191 5.38568 23.219 5.88578C22.7189 6.38588 22.0406 6.66683 21.3334 6.66683Z" fill="#395F8D"/>
</g>
<defs>
<clipPath id="clip0_124_3479">
<rect width="32" height="32" fill="white"/>
</clipPath>
</defs>
</svg>
