<svg width="32" height="32" viewBox="0 0 32 32" fill="none" xmlns="http://www.w3.org/2000/svg">
<g clip-path="url(#clip0_124_3474)">
<path d="M14.6667 2.6665L24.3973 5.7065C24.6687 5.79123 24.9059 5.96048 25.0743 6.18955C25.2427 6.41863 25.3335 6.69553 25.3333 6.97984V9.33317H28C28.3536 9.33317 28.6928 9.47365 28.9428 9.72369C29.1929 9.97374 29.3333 10.3129 29.3333 10.6665V21.3332C29.3333 21.6868 29.1929 22.0259 28.9428 22.276C28.6928 22.526 28.3536 22.6665 28 22.6665L23.7067 22.6678C23.1907 23.3478 22.564 23.9478 21.84 24.4412L14.6667 29.3332L7.49333 24.4425C6.4167 23.7084 5.53567 22.7225 4.92685 21.5704C4.31804 20.4183 3.99987 19.1349 4 17.8318V6.97984C4.00016 6.69576 4.09105 6.41916 4.25942 6.19035C4.42778 5.96154 4.66483 5.79249 4.936 5.70784L14.6667 2.6665ZM14.6667 5.4585L6.66667 7.95984V17.8318C6.66648 18.6481 6.85367 19.4536 7.21382 20.1861C7.57397 20.9187 8.09748 21.5588 8.744 22.0572L8.996 22.2385L14.6667 26.1065L19.7093 22.6665H13.3333C12.9797 22.6665 12.6406 22.526 12.3905 22.276C12.1405 22.0259 12 21.6868 12 21.3332V10.6665C12 10.3129 12.1405 9.97374 12.3905 9.72369C12.6406 9.47365 12.9797 9.33317 13.3333 9.33317H22.6667V7.95984L14.6667 5.4585ZM14.6667 15.9998V19.9998H26.6667V15.9998H14.6667ZM14.6667 13.3332H26.6667V11.9998H14.6667V13.3332Z" fill="#395F8D"/>
</g>
<defs>
<clipPath id="clip0_124_3474">
<rect width="32" height="32" fill="white"/>
</clipPath>
</defs>
</svg>
