<svg width="32" height="32" viewBox="0 0 32 32" fill="none" xmlns="http://www.w3.org/2000/svg">
<g clip-path="url(#clip0_124_3469)">
<path d="M17.3334 21.6908L19.952 20.1788L21.2854 22.4881L18.6667 24.0001L21.2854 25.5121L19.952 27.8214L17.3334 26.3094V29.3334H14.6667V26.3094L12.048 27.8214L10.7147 25.5121L13.3334 24.0001L10.7147 22.4881L12.048 20.1788L14.6667 21.6908V18.6668H17.3334V21.6908ZM22.6667 24.0001V21.3334H23.3334C24.1028 21.3333 24.8602 21.143 25.5382 20.7794C26.2163 20.4158 26.7939 19.8901 27.2197 19.2493C27.6454 18.6085 27.9062 17.8723 27.9786 17.1063C28.0511 16.3404 27.9331 15.5684 27.635 14.8591C27.337 14.1498 26.8682 13.5251 26.2704 13.0408C25.6726 12.5565 24.9643 12.2275 24.2086 12.083C23.4529 11.9386 22.6732 11.9833 21.9389 12.2131C21.2047 12.4429 20.5386 12.8507 20 13.4001V13.3334C19.9995 11.8669 19.5959 10.4287 18.8333 9.17609C18.0706 7.92345 16.9783 6.90454 15.6757 6.23072C14.3732 5.5569 12.9104 5.2541 11.4474 5.35541C9.98438 5.45672 8.57735 5.95823 7.38008 6.80515C6.18281 7.65207 5.24138 8.8118 4.65867 10.1576C4.07596 11.5034 3.8744 12.9835 4.07601 14.4361C4.27762 15.8887 4.87464 17.2579 5.80184 18.3942C6.72903 19.5304 7.95072 20.3899 9.33338 20.8788V23.6641C7.565 23.2065 5.94375 22.3024 4.62498 21.0386C3.30621 19.7747 2.33411 18.1933 1.80181 16.4459C1.26952 14.6986 1.19487 12.8438 1.58501 11.0593C1.97515 9.27483 2.81702 7.62044 4.02995 6.25465C5.24287 4.88885 6.78622 3.85742 8.51211 3.25919C10.238 2.66095 12.0886 2.51595 13.8866 2.83807C15.6846 3.1602 17.3698 3.93866 18.7806 5.09887C20.1915 6.25908 21.2807 7.76217 21.944 9.4641C22.9468 9.27225 23.9785 9.29187 24.9732 9.52172C25.9679 9.75157 26.9037 10.1866 27.7206 10.7989C28.5375 11.4112 29.2175 12.1874 29.7172 13.0777C30.2168 13.968 30.5251 14.9528 30.6222 15.969C30.7194 16.9853 30.6032 18.0107 30.2813 18.9795C29.9593 19.9483 29.4386 20.8392 28.7525 21.5952C28.0664 22.3512 27.2299 22.9556 26.2968 23.3697C25.3636 23.7838 24.3543 23.9985 23.3334 24.0001H22.6667Z" fill="#395F8D"/>
</g>
<defs>
<clipPath id="clip0_124_3469">
<rect width="32" height="32" fill="white"/>
</clipPath>
</defs>
</svg>
