<svg width="32" height="32" viewBox="0 0 32 32" fill="none" xmlns="http://www.w3.org/2000/svg">
<g clip-path="url(#clip0_124_3500)">
<path d="M29.0667 18.6678C28.5145 21.3647 27.1418 23.8248 25.1367 25.7111C23.1316 27.5973 20.5923 28.8173 17.8667 29.2038V26.5038C19.8798 26.1448 21.7475 25.2155 23.2478 23.8262C24.7482 22.4369 25.8182 20.6461 26.3307 18.6665L29.0667 18.6678ZM5.66939 18.6678C6.17634 20.6245 7.22815 22.3972 8.70258 23.7798C10.177 25.1624 12.0135 26.0982 13.9987 26.4785V29.1852C11.2999 28.774 8.79216 27.5451 6.81355 25.6642C4.83494 23.7834 3.48068 21.341 2.93339 18.6665H5.66939V18.6678ZM24.0001 14.6665V17.3332H22.6667C21.2984 17.3332 19.9824 17.8591 18.991 18.8021C17.9995 19.7452 17.4085 21.0332 17.3401 22.3998L17.3334 22.6665V23.9998H14.6667V22.6665C14.6667 21.2982 14.1408 19.9822 13.1978 18.9908C12.2547 17.9993 10.9667 17.4083 9.60006 17.3398L9.33339 17.3332H8.00006V14.6665H24.0001ZM16.0001 2.6665C22.9134 2.6665 28.5987 7.92917 29.2667 14.6665H26.5841C26.2587 12.089 25.0039 9.71887 23.0553 8.00074C21.1066 6.28261 18.598 5.33461 16.0001 5.33461C13.4021 5.33461 10.8935 6.28261 8.94482 8.00074C6.99616 9.71887 5.74143 12.089 5.41606 14.6665H2.73206C3.40139 7.92917 9.08672 2.6665 16.0001 2.6665Z" fill="#395F8D"/>
</g>
<defs>
<clipPath id="clip0_124_3500">
<rect width="32" height="32" fill="white"/>
</clipPath>
</defs>
</svg>
