<svg width="32" height="32" viewBox="0 0 32 32" fill="none" xmlns="http://www.w3.org/2000/svg">
<g clip-path="url(#clip0_124_3464)">
<path d="M16.0001 14.6665C17.7682 14.6665 19.4639 15.3689 20.7141 16.6191C21.9644 17.8694 22.6667 19.5651 22.6667 21.3332V29.3332H20.0001V21.3332C20.0001 20.3129 19.6103 19.3312 18.9104 18.5888C18.2104 17.8465 17.2533 17.3997 16.2347 17.3398L16.0001 17.3332C14.9798 17.3331 13.9981 17.7229 13.2557 18.4229C12.5134 19.1228 12.0666 20.08 12.0067 21.0985L12.0001 21.3332V29.3332H9.33341V21.3332C9.33341 19.5651 10.0358 17.8694 11.286 16.6191C12.5363 15.3689 14.232 14.6665 16.0001 14.6665ZM7.33341 18.6665C7.70541 18.6665 8.06675 18.7105 8.41341 18.7918C8.18545 19.4705 8.05044 20.1769 8.01208 20.8918L8.00008 21.3332V21.4478C7.84682 21.393 7.6874 21.3572 7.52541 21.3412L7.33341 21.3332C6.83624 21.3332 6.35689 21.5184 5.98886 21.8527C5.62082 22.1869 5.39048 22.6463 5.34275 23.1412L5.33341 23.3332V29.3332H2.66675V23.3332C2.66675 22.0955 3.15841 20.9085 4.03358 20.0333C4.90875 19.1582 6.09574 18.6665 7.33341 18.6665ZM24.6667 18.6665C25.9044 18.6665 27.0914 19.1582 27.9666 20.0333C28.8417 20.9085 29.3334 22.0955 29.3334 23.3332V29.3332H26.6667V23.3332C26.6667 22.836 26.4815 22.3566 26.1473 21.9886C25.813 21.6206 25.3536 21.3902 24.8587 21.3425L24.6667 21.3332C24.4334 21.3332 24.2094 21.3732 24.0001 21.4465V21.3332C24.0001 20.4452 23.8561 19.5918 23.5881 18.7945C23.9334 18.7105 24.2947 18.6665 24.6667 18.6665ZM7.33341 10.6665C8.21747 10.6665 9.06532 11.0177 9.69044 11.6428C10.3156 12.2679 10.6667 13.1158 10.6667 13.9998C10.6667 14.8839 10.3156 15.7317 9.69044 16.3569C9.06532 16.982 8.21747 17.3332 7.33341 17.3332C6.44936 17.3332 5.60151 16.982 4.97639 16.3569C4.35127 15.7317 4.00008 14.8839 4.00008 13.9998C4.00008 13.1158 4.35127 12.2679 4.97639 11.6428C5.60151 11.0177 6.44936 10.6665 7.33341 10.6665ZM24.6667 10.6665C25.5508 10.6665 26.3986 11.0177 27.0238 11.6428C27.6489 12.2679 28.0001 13.1158 28.0001 13.9998C28.0001 14.8839 27.6489 15.7317 27.0238 16.3569C26.3986 16.982 25.5508 17.3332 24.6667 17.3332C23.7827 17.3332 22.9348 16.982 22.3097 16.3569C21.6846 15.7317 21.3334 14.8839 21.3334 13.9998C21.3334 13.1158 21.6846 12.2679 22.3097 11.6428C22.9348 11.0177 23.7827 10.6665 24.6667 10.6665ZM7.33341 13.3332C7.1566 13.3332 6.98703 13.4034 6.86201 13.5284C6.73699 13.6535 6.66675 13.823 6.66675 13.9998C6.66675 14.1766 6.73699 14.3462 6.86201 14.4712C6.98703 14.5963 7.1566 14.6665 7.33341 14.6665C7.51023 14.6665 7.67979 14.5963 7.80482 14.4712C7.92984 14.3462 8.00008 14.1766 8.00008 13.9998C8.00008 13.823 7.92984 13.6535 7.80482 13.5284C7.67979 13.4034 7.51023 13.3332 7.33341 13.3332ZM24.6667 13.3332C24.4899 13.3332 24.3204 13.4034 24.1953 13.5284C24.0703 13.6535 24.0001 13.823 24.0001 13.9998C24.0001 14.1766 24.0703 14.3462 24.1953 14.4712C24.3204 14.5963 24.4899 14.6665 24.6667 14.6665C24.8436 14.6665 25.0131 14.5963 25.1382 14.4712C25.2632 14.3462 25.3334 14.1766 25.3334 13.9998C25.3334 13.823 25.2632 13.6535 25.1382 13.5284C25.0131 13.4034 24.8436 13.3332 24.6667 13.3332ZM16.0001 2.6665C17.4146 2.6665 18.7711 3.22841 19.7713 4.2286C20.7715 5.2288 21.3334 6.58535 21.3334 7.99984C21.3334 9.41432 20.7715 10.7709 19.7713 11.7711C18.7711 12.7713 17.4146 13.3332 16.0001 13.3332C14.5856 13.3332 13.229 12.7713 12.2288 11.7711C11.2287 10.7709 10.6667 9.41432 10.6667 7.99984C10.6667 6.58535 11.2287 5.2288 12.2288 4.2286C13.229 3.22841 14.5856 2.6665 16.0001 2.6665ZM16.0001 5.33317C15.2928 5.33317 14.6146 5.61412 14.1145 6.11422C13.6144 6.61432 13.3334 7.29259 13.3334 7.99984C13.3334 8.70708 13.6144 9.38536 14.1145 9.88546C14.6146 10.3856 15.2928 10.6665 16.0001 10.6665C16.7073 10.6665 17.3856 10.3856 17.8857 9.88546C18.3858 9.38536 18.6667 8.70708 18.6667 7.99984C18.6667 7.29259 18.3858 6.61432 17.8857 6.11422C17.3856 5.61412 16.7073 5.33317 16.0001 5.33317Z" fill="#395F8D"/>
</g>
<defs>
<clipPath id="clip0_124_3464">
<rect width="32" height="32" fill="white"/>
</clipPath>
</defs>
</svg>
